<?xml version="1.0" encoding="UTF-8"?>
<svg xmlns="http://www.w3.org/2000/svg" id="a" width="865.76" height="682.89" viewBox="0 0 865.76 682.89">
  <g>
    <g>
      <rect x="25.76" y="220.56" width="814.24" height="26.78" fill="#fff"></rect>
      <path d="M840.5,247.84H25.26v-27.78H840.5v27.78Zm-814.24-1H839.5v-25.78H26.26v25.78Z" fill="#002346"></path>
    </g>
    <g>
      <rect x="25.76" y="314.3" width="814.24" height="26.78" fill="#fff"></rect>
      <path d="M840.5,341.59H25.26v-27.78H840.5v27.78Zm-814.24-1H839.5v-25.78H26.26v25.78Z" fill="#002346"></path>
    </g>
    <g>
      <g>
        <path d="M73.44,165.38h0c8.87,0,16.07,7.2,16.07,16.07V442.87H57.37V181.45c0-8.87,7.2-16.07,16.07-16.07Z" fill="#fff"></path>
        <path d="M90.01,443.37H56.86V181.45c0-9.14,7.43-16.57,16.57-16.57s16.57,7.43,16.57,16.57V443.37Zm-32.14-1h31.14V181.45c0-8.59-6.98-15.57-15.57-15.57s-15.57,6.98-15.57,15.57V442.37Z" fill="#002346"></path>
      </g>
      <g>
        <circle cx="73.44" cy="233.95" r="5.89" fill="#fff"></circle>
        <path d="M73.44,240.34c-3.52,0-6.39-2.87-6.39-6.39s2.87-6.39,6.39-6.39,6.39,2.87,6.39,6.39-2.87,6.39-6.39,6.39Zm0-11.79c-2.97,0-5.39,2.42-5.39,5.39s2.42,5.39,5.39,5.39,5.39-2.42,5.39-5.39-2.42-5.39-5.39-5.39Z" fill="#002346"></path>
      </g>
      <g>
        <circle cx="73.44" cy="327.69" r="5.89" fill="#fff"></circle>
        <path d="M73.44,334.09c-3.52,0-6.39-2.87-6.39-6.39s2.87-6.39,6.39-6.39,6.39,2.87,6.39,6.39-2.87,6.39-6.39,6.39Zm0-11.79c-2.97,0-5.39,2.42-5.39,5.39s2.42,5.39,5.39,5.39,5.39-2.42,5.39-5.39-2.42-5.39-5.39-5.39Z" fill="#002346"></path>
      </g>
    </g>
    <g>
      <g>
        <path d="M153.07,165.38h0c8.87,0,16.07,7.2,16.07,16.07V442.87h-32.14V181.45c0-8.87,7.2-16.07,16.07-16.07Z" fill="#fff"></path>
        <path d="M169.65,443.37h-33.14V181.45c0-9.14,7.43-16.57,16.57-16.57s16.57,7.43,16.57,16.57V443.37Zm-32.14-1h31.14V181.45c0-8.59-6.99-15.57-15.57-15.57s-15.57,6.98-15.57,15.57V442.37Z" fill="#002346"></path>
      </g>
      <g>
        <circle cx="153.07" cy="233.95" r="5.89" fill="#fff"></circle>
        <path d="M153.07,240.34c-3.52,0-6.39-2.87-6.39-6.39s2.87-6.39,6.39-6.39,6.39,2.87,6.39,6.39-2.87,6.39-6.39,6.39Zm0-11.79c-2.97,0-5.39,2.42-5.39,5.39s2.42,5.39,5.39,5.39,5.39-2.42,5.39-5.39-2.42-5.39-5.39-5.39Z" fill="#002346"></path>
      </g>
      <g>
        <circle cx="153.07" cy="327.69" r="5.89" fill="#fff"></circle>
        <path d="M153.07,334.09c-3.52,0-6.39-2.87-6.39-6.39s2.87-6.39,6.39-6.39,6.39,2.87,6.39,6.39-2.87,6.39-6.39,6.39Zm0-11.79c-2.97,0-5.39,2.42-5.39,5.39s2.42,5.39,5.39,5.39,5.39-2.42,5.39-5.39-2.42-5.39-5.39-5.39Z" fill="#002346"></path>
      </g>
    </g>
    <g>
      <g>
        <path d="M232.71,165.38h0c8.87,0,16.07,7.2,16.07,16.07V442.87h-32.14V181.45c0-8.87,7.2-16.07,16.07-16.07Z" fill="#fff"></path>
        <path d="M249.28,443.37h-33.14V181.45c0-9.14,7.43-16.57,16.57-16.57s16.57,7.43,16.57,16.57V443.37Zm-32.14-1h31.14V181.45c0-8.59-6.98-15.57-15.57-15.57s-15.57,6.98-15.57,15.57V442.37Z" fill="#002346"></path>
      </g>
      <g>
        <circle cx="232.71" cy="233.95" r="5.89" fill="#fff"></circle>
        <path d="M232.71,240.34c-3.52,0-6.39-2.87-6.39-6.39s2.87-6.39,6.39-6.39,6.39,2.87,6.39,6.39-2.87,6.39-6.39,6.39Zm0-11.79c-2.97,0-5.39,2.42-5.39,5.39s2.42,5.39,5.39,5.39,5.39-2.42,5.39-5.39-2.42-5.39-5.39-5.39Z" fill="#002346"></path>
      </g>
      <g>
        <circle cx="232.71" cy="327.69" r="5.89" fill="#fff"></circle>
        <path d="M232.71,334.09c-3.52,0-6.39-2.87-6.39-6.39s2.87-6.39,6.39-6.39,6.39,2.87,6.39,6.39-2.87,6.39-6.39,6.39Zm0-11.79c-2.97,0-5.39,2.42-5.39,5.39s2.42,5.39,5.39,5.39,5.39-2.42,5.39-5.39-2.42-5.39-5.39-5.39Z" fill="#002346"></path>
      </g>
    </g>
    <g>
      <g>
        <path d="M312.35,165.38h0c8.87,0,16.07,7.2,16.07,16.07V442.87h-32.14V181.45c0-8.87,7.2-16.07,16.07-16.07Z" fill="#fff"></path>
        <path d="M328.92,443.37h-33.14V181.45c0-9.14,7.43-16.57,16.57-16.57s16.57,7.43,16.57,16.57V443.37Zm-32.14-1h31.14V181.45c0-8.59-6.98-15.57-15.57-15.57s-15.57,6.98-15.57,15.57V442.37Z" fill="#002346"></path>
      </g>
      <g>
        <circle cx="312.35" cy="233.95" r="5.89" fill="#fff"></circle>
        <path d="M312.35,240.34c-3.52,0-6.39-2.87-6.39-6.39s2.87-6.39,6.39-6.39,6.39,2.87,6.39,6.39-2.87,6.39-6.39,6.39Zm0-11.79c-2.97,0-5.39,2.42-5.39,5.39s2.42,5.39,5.39,5.39,5.39-2.42,5.39-5.39-2.42-5.39-5.39-5.39Z" fill="#002346"></path>
      </g>
      <g>
        <circle cx="312.35" cy="327.69" r="5.89" fill="#fff"></circle>
        <path d="M312.35,334.09c-3.52,0-6.39-2.87-6.39-6.39s2.87-6.39,6.39-6.39,6.39,2.87,6.39,6.39-2.87,6.39-6.39,6.39Zm0-11.79c-2.97,0-5.39,2.42-5.39,5.39s2.42,5.39,5.39,5.39,5.39-2.42,5.39-5.39-2.42-5.39-5.39-5.39Z" fill="#002346"></path>
      </g>
    </g>
    <g>
      <g>
        <path d="M391.99,165.38h0c8.87,0,16.07,7.2,16.07,16.07V442.87h-32.14V181.45c0-8.87,7.2-16.07,16.07-16.07Z" fill="#fff"></path>
        <path d="M408.56,443.37h-33.14V181.45c0-9.14,7.43-16.57,16.57-16.57s16.57,7.43,16.57,16.57V443.37Zm-32.14-1h31.14V181.45c0-8.59-6.98-15.57-15.57-15.57s-15.57,6.98-15.57,15.57V442.37Z" fill="#002346"></path>
      </g>
      <g>
        <circle cx="391.99" cy="233.95" r="5.89" fill="#fff"></circle>
        <path d="M391.99,240.34c-3.52,0-6.39-2.87-6.39-6.39s2.87-6.39,6.39-6.39,6.39,2.87,6.39,6.39-2.87,6.39-6.39,6.39Zm0-11.79c-2.97,0-5.39,2.42-5.39,5.39s2.42,5.39,5.39,5.39,5.39-2.42,5.39-5.39-2.42-5.39-5.39-5.39Z" fill="#002346"></path>
      </g>
      <g>
        <circle cx="391.99" cy="327.69" r="5.89" fill="#fff"></circle>
        <path d="M391.99,334.09c-3.52,0-6.39-2.87-6.39-6.39s2.87-6.39,6.39-6.39,6.39,2.87,6.39,6.39-2.87,6.39-6.39,6.39Zm0-11.79c-2.97,0-5.39,2.42-5.39,5.39s2.42,5.39,5.39,5.39,5.39-2.42,5.39-5.39-2.42-5.39-5.39-5.39Z" fill="#002346"></path>
      </g>
    </g>
    <g>
      <g>
        <path d="M471.63,165.38h0c8.87,0,16.07,7.2,16.07,16.07V442.87h-32.14V181.45c0-8.87,7.2-16.07,16.07-16.07Z" fill="#fff"></path>
        <path d="M488.2,443.37h-33.14V181.45c0-9.14,7.43-16.57,16.57-16.57s16.57,7.43,16.57,16.57V443.37Zm-32.14-1h31.14V181.45c0-8.59-6.98-15.57-15.57-15.57s-15.57,6.98-15.57,15.57V442.37Z" fill="#002346"></path>
      </g>
      <g>
        <circle cx="471.63" cy="233.95" r="5.89" fill="#fff"></circle>
        <path d="M471.63,240.34c-3.52,0-6.39-2.87-6.39-6.39s2.87-6.39,6.39-6.39,6.39,2.87,6.39,6.39-2.87,6.39-6.39,6.39Zm0-11.79c-2.97,0-5.39,2.42-5.39,5.39s2.42,5.39,5.39,5.39,5.39-2.42,5.39-5.39-2.42-5.39-5.39-5.39Z" fill="#002346"></path>
      </g>
      <g>
        <circle cx="471.63" cy="327.69" r="5.89" fill="#fff"></circle>
        <path d="M471.63,334.09c-3.52,0-6.39-2.87-6.39-6.39s2.87-6.39,6.39-6.39,6.39,2.87,6.39,6.39-2.87,6.39-6.39,6.39Zm0-11.79c-2.97,0-5.39,2.42-5.39,5.39s2.42,5.39,5.39,5.39,5.39-2.42,5.39-5.39-2.42-5.39-5.39-5.39Z" fill="#002346"></path>
      </g>
    </g>
    <g>
      <g>
        <path d="M551.27,165.38h0c8.87,0,16.07,7.2,16.07,16.07V442.87h-32.14V181.45c0-8.87,7.2-16.07,16.07-16.07Z" fill="#fff"></path>
        <path d="M567.84,443.37h-33.14V181.45c0-9.14,7.43-16.57,16.57-16.57s16.57,7.43,16.57,16.57V443.37Zm-32.14-1h31.14V181.45c0-8.59-6.98-15.57-15.57-15.57s-15.57,6.98-15.57,15.57V442.37Z" fill="#002346"></path>
      </g>
      <g>
        <circle cx="551.27" cy="233.95" r="5.89" fill="#fff"></circle>
        <path d="M551.27,240.34c-3.52,0-6.39-2.87-6.39-6.39s2.87-6.39,6.39-6.39,6.39,2.87,6.39,6.39-2.87,6.39-6.39,6.39Zm0-11.79c-2.97,0-5.39,2.42-5.39,5.39s2.42,5.39,5.39,5.39,5.39-2.42,5.39-5.39-2.42-5.39-5.39-5.39Z" fill="#002346"></path>
      </g>
      <g>
        <circle cx="551.27" cy="327.69" r="5.89" fill="#fff"></circle>
        <path d="M551.27,334.09c-3.52,0-6.39-2.87-6.39-6.39s2.87-6.39,6.39-6.39,6.39,2.87,6.39,6.39-2.87,6.39-6.39,6.39Zm0-11.79c-2.97,0-5.39,2.42-5.39,5.39s2.42,5.39,5.39,5.39,5.39-2.42,5.39-5.39-2.42-5.39-5.39-5.39Z" fill="#002346"></path>
      </g>
    </g>
    <g>
      <g>
        <path d="M630.9,165.38h0c8.87,0,16.07,7.2,16.07,16.07V442.87h-32.14V181.45c0-8.87,7.2-16.07,16.07-16.07Z" fill="#fff"></path>
        <path d="M647.48,443.37h-33.14V181.45c0-9.14,7.43-16.57,16.57-16.57s16.57,7.43,16.57,16.57V443.37Zm-32.14-1h31.14V181.45c0-8.59-6.98-15.57-15.57-15.57s-15.57,6.98-15.57,15.57V442.37Z" fill="#002346"></path>
      </g>
      <g>
        <circle cx="630.9" cy="233.95" r="5.89" fill="#fff"></circle>
        <path d="M630.9,240.34c-3.52,0-6.39-2.87-6.39-6.39s2.87-6.39,6.39-6.39,6.39,2.87,6.39,6.39-2.87,6.39-6.39,6.39Zm0-11.79c-2.97,0-5.39,2.42-5.39,5.39s2.42,5.39,5.39,5.39,5.39-2.42,5.39-5.39-2.42-5.39-5.39-5.39Z" fill="#002346"></path>
      </g>
      <g>
        <circle cx="630.9" cy="327.69" r="5.89" fill="#fff"></circle>
        <path d="M630.9,334.09c-3.52,0-6.39-2.87-6.39-6.39s2.87-6.39,6.39-6.39,6.39,2.87,6.39,6.39-2.87,6.39-6.39,6.39Zm0-11.79c-2.97,0-5.39,2.42-5.39,5.39s2.42,5.39,5.39,5.39,5.39-2.42,5.39-5.39-2.42-5.39-5.39-5.39Z" fill="#002346"></path>
      </g>
    </g>
    <g>
      <g>
        <path d="M710.54,165.38h0c8.87,0,16.07,7.2,16.07,16.07V442.87h-32.14V181.45c0-8.87,7.2-16.07,16.07-16.07Z" fill="#fff"></path>
        <path d="M727.11,443.37h-33.14V181.45c0-9.14,7.43-16.57,16.57-16.57s16.57,7.43,16.57,16.57V443.37Zm-32.14-1h31.14V181.45c0-8.59-6.99-15.57-15.57-15.57s-15.57,6.98-15.57,15.57V442.37Z" fill="#002346"></path>
      </g>
      <g>
        <circle cx="710.54" cy="233.95" r="5.89" fill="#fff"></circle>
        <path d="M710.54,240.34c-3.52,0-6.39-2.87-6.39-6.39s2.87-6.39,6.39-6.39,6.39,2.87,6.39,6.39-2.87,6.39-6.39,6.39Zm0-11.79c-2.97,0-5.39,2.42-5.39,5.39s2.42,5.39,5.39,5.39,5.39-2.42,5.39-5.39-2.42-5.39-5.39-5.39Z" fill="#002346"></path>
      </g>
      <g>
        <circle cx="710.54" cy="327.69" r="5.89" fill="#fff"></circle>
        <path d="M710.54,334.09c-3.52,0-6.39-2.87-6.39-6.39s2.87-6.39,6.39-6.39,6.39,2.87,6.39,6.39-2.87,6.39-6.39,6.39Zm0-11.79c-2.97,0-5.39,2.42-5.39,5.39s2.42,5.39,5.39,5.39,5.39-2.42,5.39-5.39-2.42-5.39-5.39-5.39Z" fill="#002346"></path>
      </g>
    </g>
    <g>
      <g>
        <path d="M790.18,165.38h0c8.87,0,16.07,7.2,16.07,16.07V442.87h-32.14V181.45c0-8.87,7.2-16.07,16.07-16.07Z" fill="#fff"></path>
        <path d="M806.75,443.37h-33.14V181.45c0-9.14,7.43-16.57,16.57-16.57s16.57,7.43,16.57,16.57V443.37Zm-32.14-1h31.14V181.45c0-8.59-6.98-15.57-15.57-15.57s-15.57,6.98-15.57,15.57V442.37Z" fill="#002346"></path>
      </g>
      <g>
        <circle cx="790.18" cy="233.95" r="5.89" fill="#fff"></circle>
        <path d="M790.18,240.34c-3.52,0-6.39-2.87-6.39-6.39s2.87-6.39,6.39-6.39,6.39,2.87,6.39,6.39-2.87,6.39-6.39,6.39Zm0-11.79c-2.97,0-5.39,2.42-5.39,5.39s2.42,5.39,5.39,5.39,5.39-2.42,5.39-5.39-2.42-5.39-5.39-5.39Z" fill="#002346"></path>
      </g>
      <g>
        <circle cx="790.18" cy="327.69" r="5.89" fill="#fff"></circle>
        <path d="M790.18,334.09c-3.52,0-6.39-2.87-6.39-6.39s2.87-6.39,6.39-6.39,6.39,2.87,6.39,6.39-2.87,6.39-6.39,6.39Zm0-11.79c-2.97,0-5.39,2.42-5.39,5.39s2.42,5.39,5.39,5.39,5.39-2.42,5.39-5.39-2.42-5.39-5.39-5.39Z" fill="#002346"></path>
      </g>
    </g>
  </g>
  <g>
    <g>
      <circle cx="226.57" cy="331.09" r="19" fill="#f69074"></circle>
      <path d="M226.54,350.6c-3.2,0-6.37-.8-9.27-2.37-9.45-5.12-12.98-16.98-7.85-26.43,2.48-4.58,6.6-7.92,11.59-9.4,4.99-1.49,10.26-.93,14.84,1.55,9.45,5.12,12.98,16.98,7.85,26.43h0c-2.48,4.58-6.6,7.92-11.59,9.4-1.84,.55-3.71,.82-5.58,.82Zm.05-38.02c-1.77,0-3.55,.26-5.29,.77-4.74,1.41-8.64,4.58-11,8.92-4.86,8.97-1.52,20.22,7.45,25.08,4.34,2.35,9.34,2.88,14.08,1.47,4.74-1.41,8.64-4.58,11-8.92,4.86-8.97,1.52-20.22-7.45-25.08-2.74-1.49-5.75-2.24-8.79-2.24Z" fill="#002346"></path>
    </g>
    <g>
      <path d="M215.9,313.95c1.86,.85,3.88,1.3,5.93,1.32,.76,.03,3.42-.32,5.12-.16-.53,.58-.82,1.34-.84,2.12-.06,2.33,2.03,3.99,3.87,4.85,2.45,1.13,8.12,.72,8.56,4.23,.07,.58,1.06,.57,1.04-.06-.06-1.63-.53-3.21-1.39-4.6-.98-1.54-2.73-2.47-3.62-4.12-.27-.5-.45-.96-.67-1.41,4.89,1.79,9.89,3.68,14.38,.04,.29-.23,.07-.8-.32-.7-5.98,1.88-8-3.53-12.96-4.85-1.75-.55-3.66-.11-5,1.15-.6-.7-1.37-1.25-2.23-1.59-4.17-1.66-13.46,4.43-14.25-2.63-.09-.57-.88-.48-.94,.03-.5,2.64,.87,5.28,3.32,6.38Z" fill="#002346"></path>
      <path d="M239.05,327.24c-.53,0-.96-.36-1.02-.87-.26-2.08-2.8-2.57-5.26-3.04-1.14-.22-2.21-.43-3.02-.8-2.66-1.24-4.21-3.23-4.16-5.31,.01-.58,.16-1.14,.42-1.65-.91,0-1.92,.07-2.72,.13-.66,.05-1.19,.09-1.49,.07-2.11-.02-4.17-.48-6.11-1.37-2.67-1.21-4.15-4.06-3.6-6.93,.05-.45,.46-.81,.96-.83,.47,.01,.88,.33,.96,.81,.14,1.2,.52,2.01,1.17,2.49,1.39,1.02,3.96,.5,6.44,0,2.28-.46,4.64-.93,6.33-.26,.78,.31,1.49,.78,2.08,1.37,1.44-1.12,3.35-1.48,5.11-.93,1.96,.52,3.46,1.64,4.91,2.73,2.3,1.72,4.29,3.21,7.75,2.12,.41-.12,.8,.06,.99,.43,.2,.39,.12,.86-.21,1.12-4.36,3.53-9.1,2.13-13.73,.46,.05,.1,.1,.19,.15,.29,.44,.81,1.11,1.44,1.81,2.1,.64,.6,1.3,1.22,1.79,1.99,.9,1.46,1.41,3.14,1.47,4.85,0,.55-.38,.96-.94,1-.03,0-.05,0-.08,0Zm-13.11-12.67c.37,0,.72,.01,1.04,.04l.99,.09-.67,.74c-.45,.5-.7,1.14-.72,1.8-.06,2.49,2.72,3.98,3.58,4.38,.69,.32,1.71,.51,2.78,.72,2.54,.49,5.71,1.1,6.06,3.9,0-1.52-.46-3.02-1.26-4.33-.42-.66-1.01-1.21-1.62-1.79-.74-.69-1.5-1.4-2.01-2.36-.17-.31-.3-.61-.43-.89-.08-.18-.16-.36-.25-.53l-.55-1.12,1.35,.49c4.72,1.72,9.18,3.35,13.28,.39-3.59,.9-5.87-.79-8.06-2.44-1.38-1.03-2.8-2.09-4.59-2.57-1.6-.5-3.32-.1-4.53,1.03l-.38,.36-.34-.4c-.55-.64-1.25-1.14-2.04-1.46-1.41-.56-3.62-.12-5.76,.31-2.69,.54-5.48,1.09-7.22-.18-.88-.64-1.41-1.71-1.58-3.16-.4,2.48,.84,4.88,3.09,5.9h0c1.81,.82,3.74,1.25,5.72,1.28,.27,0,.79-.03,1.39-.07,.8-.06,1.8-.13,2.72-.13Z" fill="#002346"></path>
    </g>
  </g>
  <g>
    <path d="M214.04,463.63c4.63-13.94,13.07-26,20.51-38.53,18-30.19,25.35-62.6,14.09-96.63-10-30.1-25.47-57.19-30.89-88.89-4.91-28.69-2.26-56.27,9.75-83,.19-.42,.89-.12,.74,.3-11.44,30.05-10.35,64.21-2.46,95,7.76,30.25,26.42,56.19,34.12,86.31,7.21,28.27,.69,56.54-12.62,82-7.49,14.3-17.78,27.25-23.62,42.4-6,15.67-5.1,31.93-6.25,48.34,0,2.23-1.8,4.03-4.03,4.03s-4.03-1.8-4.03-4.03c-1.09-15.49-.23-32.41,4.69-47.3Z" fill="#fff"></path>
    <path d="M213.38,515.46c-2.5,0-4.53-2.03-4.53-4.53-1.28-18.14,.31-34.12,4.71-47.46h0c3.69-11.12,9.89-21.19,15.88-30.93,1.55-2.52,3.15-5.12,4.68-7.7,19.58-32.84,24.3-65.21,14.04-96.22-3.59-10.81-7.96-21.39-12.18-31.63-7.5-18.18-15.25-36.98-18.73-57.34-5.13-29.97-1.93-57.22,9.79-83.29,.19-.43,.68-.61,1.14-.42,.46,.19,.69,.66,.53,1.1-13.2,34.67-8.61,70.64-2.45,94.71,3.87,15.08,10.57,29.33,17.05,43.12,6.49,13.81,13.21,28.09,17.07,43.19,6.61,25.93,2.35,53.64-12.66,82.36-2.89,5.52-6.25,10.92-9.5,16.14-5.17,8.32-10.53,16.93-14.1,26.2-4.6,12.02-5.11,24.15-5.64,36.99-.15,3.67-.31,7.46-.57,11.21,0,2.46-2.03,4.49-4.53,4.49Zm1.13-51.67c-4.3,13.03-5.92,29.32-4.67,47.11,0,1.98,1.58,3.56,3.53,3.56s3.53-1.58,3.53-3.53c.26-3.77,.42-7.55,.57-11.21,.52-12.36,1.05-25.13,5.71-37.31,3.61-9.37,8.99-18.01,14.18-26.37,3.24-5.21,6.59-10.59,9.46-16.08,14.9-28.49,19.13-55.96,12.58-81.64-3.84-15.01-10.53-29.25-17-43.02-6.5-13.83-13.22-28.12-17.12-43.29-6.02-23.49-10.54-58.26,1.34-92.19-10.55,24.97-13.29,51.07-8.39,79.69,3.46,20.25,11.19,38.99,18.67,57.12,4.23,10.25,8.6,20.85,12.2,31.69,10.35,31.29,5.6,63.95-14.13,97.04-1.53,2.58-3.14,5.19-4.69,7.71-5.96,9.69-12.12,19.71-15.78,30.72h0Z" fill="#002346"></path>
  </g>
  <g>
    <path d="M220.88,349.48c3.81-27.76,18.15-52,24.25-79.11,6.67-29.37,4.92-60.03-5.07-88.44-.17-.49,.61-.7,.78-.21,9.19,25.14,12.94,51.94,11,78.64-2.19,28.16-14.79,53-20.51,80.29-6.33,31.11-.55,59.73,8.42,89.6,8.1,26.64,11.96,54.38,11.44,82.22-.09,5-7.93,5.05-7.83,0,.57-29.42-4.48-57.19-13.58-85.06-8.37-25.62-12.6-51.01-8.9-77.93Z" fill="#fff"></path>
    <path d="M247.19,516.74c-.86,0-1.71-.22-2.43-.65-1.26-.76-1.93-2.05-1.9-3.63,.53-27.55-3.9-55.32-13.56-84.89-9.44-28.9-12.27-53.73-8.92-78.15h0c2.14-15.6,7.68-30.31,13.03-44.54,4.2-11.17,8.55-22.71,11.22-34.61,6.66-29.32,4.92-59.8-5.05-88.17-.09-.25-.07-.5,.06-.71,.1-.18,.27-.32,.48-.39,.49-.17,1.02,.07,1.19,.56,9.27,25.37,12.98,51.89,11.03,78.84-1.32,16.94-6.47,32.95-11.46,48.43-3.33,10.34-6.77,21.02-9.06,31.93-6.54,32.14,.18,61.94,8.41,89.35,8.13,26.73,11.98,54.44,11.46,82.37-.03,1.62-.79,2.92-2.14,3.67-.71,.39-1.54,.59-2.36,.59Zm-3.44-324.75c7.11,25.56,7.78,52.49,1.87,78.5-2.69,11.97-7.05,23.54-11.26,34.74-5.34,14.18-10.85,28.84-12.98,44.33h0c-3.33,24.26-.51,48.96,8.88,77.71,9.69,29.68,14.14,57.56,13.6,85.22-.03,1.55,.75,2.35,1.42,2.75,1.1,.67,2.62,.68,3.79,.04,1.03-.57,1.6-1.56,1.63-2.81,.52-27.83-3.32-55.44-11.42-82.07-8.27-27.54-15.02-57.49-8.43-89.84,2.3-10.96,5.75-21.67,9.09-32.03,4.97-15.42,10.11-31.37,11.42-48.2,1.69-23.25-.86-46.19-7.59-68.34Zm-3.38-10.09h0s0,0,0,0Z" fill="#002346"></path>
  </g>
  <g>
    <g>
      <circle cx="263" cy="300.53" r="19" fill="#f69074"></circle>
      <path d="M263,320.03c-10.75,0-19.5-8.75-19.5-19.5s8.75-19.5,19.5-19.5,19.5,8.75,19.5,19.5-8.75,19.5-19.5,19.5Zm0-38c-10.2,0-18.5,8.3-18.5,18.5s8.3,18.5,18.5,18.5,18.5-8.3,18.5-18.5-8.3-18.5-18.5-18.5Z" fill="#002346"></path>
    </g>
    <g>
      <path d="M245.45,290.54c2.04-.14,4.03-.71,5.84-1.66,.68-.33,2.86-1.91,4.42-2.58-.18,.76-.09,1.57,.27,2.27,1.06,2.08,3.69,2.54,5.71,2.42,2.69-.17,7.48-3.24,9.54-.36,.34,.48,1.2,0,.89-.55-.82-1.4-2-2.57-3.41-3.38-1.6-.89-3.58-.87-5.15-1.9-.47-.31-.85-.63-1.26-.92,5.15-.76,10.45-1.48,12.66-6.82,.14-.34-.32-.74-.61-.46-4.36,4.5-8.71,.71-13.7,1.91-1.8,.35-3.27,1.65-3.85,3.39-.87-.33-1.8-.45-2.72-.34-4.46,.53-9.72,10.31-13.78,4.48-.35-.46-1,0-.81,.47,.82,2.56,3.28,4.22,5.96,4.03Z" fill="#002346"></path>
      <path d="M261.08,291.51c-2.62,0-4.67-.99-5.54-2.71-.26-.52-.4-1.08-.42-1.65-.79,.42-1.66,.98-2.33,1.41-.56,.36-1,.64-1.28,.78-1.87,.98-3.9,1.56-6.02,1.71-2.92,.21-5.58-1.59-6.47-4.38-.17-.42,.01-.93,.45-1.18,.42-.24,.93-.14,1.23,.26,.69,.99,1.41,1.52,2.22,1.63,1.71,.23,3.72-1.44,5.66-3.06,1.79-1.49,3.64-3.03,5.44-3.24,.83-.1,1.68-.03,2.48,.21,.73-1.67,2.24-2.9,4.05-3.25,1.97-.47,3.82-.2,5.62,.06,2.84,.42,5.3,.78,7.82-1.83,.31-.29,.73-.32,1.08-.09,.36,.25,.51,.71,.35,1.09-2.14,5.18-6.99,6.21-11.86,6.95,.09,.06,.18,.12,.27,.18,.77,.51,1.66,.74,2.6,.99,.84,.22,1.72,.45,2.52,.9,1.49,.86,2.73,2.09,3.6,3.56,.27,.47,.12,1.03-.35,1.33-.48,.3-1.07,.2-1.38-.23-1.22-1.7-3.68-.92-6.07-.17-1.11,.35-2.15,.68-3.03,.74-.22,.01-.43,.02-.64,.02Zm-4.65-6.06l-.23,.97c-.16,.65-.07,1.33,.23,1.93,1.13,2.22,4.29,2.2,5.24,2.15,.76-.05,1.75-.36,2.79-.69,2.47-.78,5.54-1.76,7.18,.54-.73-1.33-1.84-2.44-3.18-3.21-.68-.38-1.46-.58-2.28-.8-.98-.26-1.99-.52-2.89-1.12-.29-.19-.55-.39-.8-.58-.16-.12-.31-.24-.47-.35l-1.02-.72,1.42-.21c4.97-.73,9.67-1.42,11.86-5.98-2.73,2.5-5.53,2.09-8.25,1.7-1.7-.25-3.46-.51-5.26-.07-1.64,.32-2.97,1.49-3.49,3.06l-.16,.5-.49-.19c-.79-.3-1.64-.41-2.48-.31-1.5,.18-3.24,1.62-4.92,3.02-2.11,1.76-4.29,3.57-6.44,3.28-1.08-.15-2.06-.83-2.89-2.03,.83,2.38,3.04,3.9,5.52,3.71h0c1.98-.14,3.88-.68,5.64-1.6,.23-.11,.68-.4,1.19-.73,.94-.6,2.23-1.43,3.26-1.87l.92-.39Z" fill="#002346"></path>
    </g>
  </g>
  <g>
    <g>
      <circle cx="262.5" cy="380.03" r="19" fill="#f69074"></circle>
      <path d="M262.5,399.53c-10.75,0-19.5-8.75-19.5-19.5s8.75-19.5,19.5-19.5,19.5,8.75,19.5,19.5-8.75,19.5-19.5,19.5Zm0-38c-10.2,0-18.5,8.3-18.5,18.5s8.3,18.5,18.5,18.5,18.5-8.3,18.5-18.5-8.3-18.5-18.5-18.5Z" fill="#002346"></path>
    </g>
    <g>
      <path d="M244.95,370.04c2.04-.14,4.03-.71,5.84-1.66,.68-.33,2.86-1.91,4.42-2.58-.18,.76-.09,1.57,.27,2.27,1.06,2.08,3.69,2.54,5.71,2.42,2.69-.17,7.48-3.24,9.54-.36,.34,.48,1.2,0,.89-.55-.82-1.4-2-2.57-3.41-3.38-1.6-.89-3.58-.87-5.15-1.9-.47-.31-.85-.63-1.26-.92,5.15-.76,10.45-1.48,12.66-6.82,.14-.34-.32-.74-.61-.46-4.36,4.5-8.71,.71-13.7,1.91-1.8,.35-3.27,1.65-3.85,3.39-.87-.33-1.8-.45-2.72-.34-4.46,.53-9.72,10.31-13.78,4.48-.35-.46-1,0-.81,.47,.82,2.56,3.28,4.22,5.96,4.03Z" fill="#002346"></path>
      <path d="M260.58,371.01c-2.62,0-4.67-.99-5.54-2.71-.26-.52-.4-1.08-.42-1.65-.79,.42-1.66,.98-2.33,1.41-.56,.36-1,.64-1.28,.78-1.87,.98-3.9,1.56-6.02,1.71-2.92,.2-5.58-1.59-6.47-4.38-.17-.42,.01-.93,.45-1.18,.43-.24,.93-.13,1.23,.26,.69,.99,1.41,1.52,2.22,1.63,1.71,.23,3.72-1.44,5.66-3.06,1.79-1.49,3.64-3.03,5.44-3.24,.83-.1,1.68-.03,2.48,.21,.73-1.67,2.24-2.9,4.05-3.25,1.97-.47,3.82-.2,5.62,.06,2.84,.42,5.3,.78,7.82-1.83,.31-.29,.73-.32,1.08-.09,.36,.25,.51,.71,.35,1.09-2.14,5.18-6.99,6.21-11.86,6.95,.09,.06,.18,.12,.27,.18,.77,.51,1.66,.74,2.6,.99,.84,.22,1.72,.45,2.52,.9,1.49,.86,2.73,2.09,3.6,3.56,.27,.47,.12,1.03-.35,1.33-.48,.3-1.07,.2-1.38-.23-1.22-1.7-3.69-.92-6.07-.17-1.11,.35-2.15,.68-3.03,.74-.22,.01-.43,.02-.64,.02Zm-4.65-6.06l-.23,.97c-.16,.65-.07,1.33,.23,1.93,1.13,2.22,4.29,2.2,5.24,2.15,.76-.05,1.75-.36,2.79-.69,2.47-.78,5.54-1.76,7.18,.54-.73-1.33-1.84-2.44-3.18-3.21-.68-.38-1.46-.58-2.28-.8-.98-.26-1.99-.52-2.89-1.12-.29-.19-.55-.39-.8-.58-.16-.12-.31-.24-.47-.35l-1.02-.72,1.42-.21c4.97-.73,9.67-1.42,11.86-5.98-2.73,2.5-5.53,2.09-8.25,1.7-1.7-.25-3.46-.5-5.26-.07-1.64,.32-2.97,1.49-3.49,3.06l-.16,.5-.49-.19c-.79-.3-1.64-.41-2.48-.31-1.5,.18-3.24,1.62-4.92,3.02-2.11,1.76-4.29,3.57-6.44,3.28-1.08-.15-2.06-.83-2.89-2.03,.83,2.38,3.06,3.89,5.52,3.71h0c1.98-.14,3.88-.68,5.64-1.6,.23-.11,.68-.4,1.19-.73,.94-.6,2.23-1.43,3.26-1.87l.92-.39Z" fill="#002346"></path>
    </g>
  </g>
  <g>
    <g>
      <circle cx="243.57" cy="223.09" r="19" fill="#f69074"></circle>
      <path d="M243.54,242.6c-3.2,0-6.37-.8-9.26-2.37-9.45-5.12-12.98-16.98-7.85-26.44,5.12-9.45,16.98-12.98,26.43-7.85,4.58,2.48,7.92,6.6,9.4,11.59,1.48,4.99,.93,10.26-1.55,14.84-2.48,4.58-6.6,7.92-11.59,9.4-1.84,.55-3.71,.82-5.58,.82Zm.06-38.01c-6.57,0-12.95,3.51-16.3,9.68-4.86,8.97-1.52,20.22,7.45,25.08,4.34,2.35,9.34,2.88,14.08,1.47,4.74-1.41,8.64-4.58,11-8.92h0c2.35-4.34,2.88-9.35,1.47-14.08s-4.58-8.64-8.92-11c-2.79-1.51-5.81-2.23-8.78-2.23Z" fill="#002346"></path>
    </g>
    <g>
      <path d="M232.9,205.95c1.86,.85,3.88,1.3,5.93,1.32,.76,.03,3.42-.32,5.12-.16-.53,.58-.82,1.34-.84,2.12-.06,2.33,2.03,3.99,3.87,4.85,2.45,1.13,8.12,.72,8.56,4.23,.07,.58,1.06,.57,1.04-.06-.06-1.63-.53-3.21-1.39-4.6-.98-1.54-2.73-2.47-3.62-4.12-.27-.5-.45-.96-.67-1.41,4.89,1.79,9.89,3.68,14.38,.04,.29-.23,.07-.8-.32-.7-5.98,1.88-8-3.53-12.96-4.85-1.75-.55-3.66-.11-5,1.15-.6-.7-1.37-1.25-2.23-1.59-4.17-1.66-13.46,4.43-14.25-2.63-.09-.57-.88-.48-.94,.03-.5,2.64,.87,5.28,3.32,6.38Z" fill="#002346"></path>
      <path d="M256.05,219.24c-.53,0-.96-.36-1.02-.87-.26-2.08-2.8-2.57-5.26-3.04-1.14-.22-2.21-.42-3.02-.8-2.66-1.24-4.21-3.23-4.16-5.32,.01-.58,.16-1.14,.42-1.65-.89-.02-1.92,.07-2.72,.13-.67,.05-1.19,.09-1.49,.07-2.11-.03-4.17-.49-6.11-1.37-2.67-1.21-4.15-4.06-3.6-6.93,.05-.45,.46-.81,.96-.83,.53-.01,.88,.33,.96,.81,.14,1.2,.52,2.01,1.17,2.49,1.39,1.02,3.96,.5,6.44,0,2.28-.46,4.65-.93,6.33-.26,.78,.31,1.49,.78,2.08,1.37,1.44-1.13,3.35-1.48,5.11-.93,1.96,.52,3.46,1.64,4.91,2.73,2.3,1.72,4.29,3.2,7.75,2.12,.4-.12,.8,.06,.99,.43,.2,.39,.12,.87-.21,1.13-4.35,3.53-9.1,2.13-13.73,.46,.05,.1,.1,.19,.15,.29,.44,.81,1.11,1.44,1.81,2.1,.64,.6,1.3,1.22,1.79,1.99,.9,1.46,1.41,3.14,1.47,4.85,0,.55-.38,.96-.94,1-.03,0-.05,0-.08,0Zm-13.11-12.67c.37,0,.72,.01,1.05,.04l.99,.09-.67,.74c-.45,.5-.7,1.14-.72,1.8-.06,2.48,2.72,3.98,3.58,4.38,.69,.32,1.71,.51,2.78,.72,2.54,.49,5.71,1.1,6.06,3.9,0-1.52-.46-3.02-1.27-4.33-.42-.66-1-1.21-1.62-1.79-.74-.69-1.5-1.4-2.01-2.36-.16-.31-.3-.6-.43-.89-.08-.18-.16-.36-.25-.54l-.55-1.12,1.35,.5c4.72,1.72,9.18,3.35,13.28,.39-3.6,.9-5.87-.79-8.06-2.44-1.38-1.03-2.8-2.09-4.59-2.57-1.6-.5-3.32-.11-4.53,1.03l-.38,.36-.34-.4c-.55-.64-1.25-1.14-2.03-1.46-1.41-.56-3.62-.12-5.76,.31-2.69,.54-5.48,1.09-7.22-.18-.88-.65-1.41-1.71-1.58-3.17-.41,2.49,.84,4.88,3.09,5.9h0c1.81,.82,3.74,1.25,5.72,1.28,.26,0,.79-.03,1.39-.07,.8-.06,1.8-.13,2.72-.13Z" fill="#002346"></path>
    </g>
  </g>
  <g>
    <g>
      <circle cx="229.56" cy="443.11" r="19" fill="#f69074"></circle>
      <path d="M229.53,462.61c-3.14,0-6.31-.76-9.26-2.35-4.58-2.48-7.92-6.6-9.4-11.59-1.48-4.99-.93-10.26,1.55-14.84,5.12-9.45,16.98-12.97,26.44-7.85,9.45,5.12,12.98,16.98,7.85,26.44h0c-3.53,6.51-10.25,10.21-17.18,10.21Zm.07-37.99c-6.58,0-12.95,3.51-16.3,9.68-2.35,4.34-2.88,9.35-1.47,14.08,1.41,4.74,4.58,8.64,8.92,11,8.97,4.86,20.22,1.52,25.08-7.45h0c4.86-8.97,1.52-20.22-7.45-25.08-2.79-1.51-5.81-2.23-8.78-2.23Z" fill="#002346"></path>
    </g>
    <g>
      <path d="M218.9,425.97c1.86,.85,3.88,1.3,5.93,1.32,.76,.03,3.42-.32,5.12-.16-.53,.58-.82,1.34-.84,2.12-.06,2.33,2.03,3.99,3.87,4.85,2.45,1.13,8.12,.72,8.56,4.23,.07,.58,1.06,.57,1.04-.06-.06-1.63-.53-3.21-1.39-4.6-.98-1.54-2.73-2.47-3.62-4.12-.27-.5-.45-.96-.67-1.41,4.89,1.79,9.89,3.68,14.38,.04,.29-.23,.07-.8-.32-.7-5.98,1.88-8-3.53-12.96-4.85-1.75-.55-3.66-.11-5,1.15-.6-.7-1.37-1.25-2.23-1.59-4.17-1.66-13.46,4.43-14.25-2.63-.09-.57-.88-.48-.94,.03-.5,2.64,.87,5.28,3.32,6.38Z" fill="#002346"></path>
      <path d="M242.05,439.26c-.53,0-.96-.36-1.02-.87-.26-2.08-2.8-2.57-5.25-3.04-1.14-.22-2.22-.43-3.02-.8-2.66-1.24-4.21-3.23-4.16-5.31,.01-.58,.16-1.14,.42-1.65-.92-.02-1.93,.07-2.73,.13-.66,.05-1.19,.08-1.49,.07-2.11-.03-4.17-.49-6.11-1.37-2.67-1.21-4.15-4.06-3.6-6.93,.05-.45,.46-.82,.96-.83h.02c.48,0,.86,.33,.94,.81,.14,1.2,.52,2.01,1.17,2.49,1.39,1.02,3.96,.5,6.44,0,2.28-.46,4.65-.93,6.33-.26,.78,.31,1.49,.78,2.08,1.37,1.43-1.12,3.35-1.48,5.11-.93,1.96,.52,3.46,1.64,4.91,2.73,2.3,1.72,4.29,3.2,7.75,2.12,.41-.12,.8,.06,.99,.43,.2,.39,.12,.86-.21,1.13-4.35,3.53-9.1,2.13-13.73,.46,.05,.1,.1,.19,.15,.29,.44,.81,1.11,1.44,1.81,2.1,.64,.6,1.3,1.22,1.79,1.99,.9,1.46,1.41,3.14,1.47,4.85,0,.55-.39,.96-.94,1-.03,0-.05,0-.08,0Zm-13.11-12.67c.37,0,.72,.01,1.05,.04l.99,.09-.67,.74c-.45,.5-.7,1.14-.72,1.8-.06,2.49,2.72,3.98,3.58,4.38,.69,.32,1.71,.52,2.79,.72,2.54,.49,5.71,1.1,6.06,3.9,0-1.52-.46-3.02-1.26-4.33-.42-.66-1.01-1.21-1.62-1.79-.74-.69-1.5-1.4-2.01-2.36-.16-.31-.3-.6-.43-.89-.08-.18-.16-.36-.25-.54l-.55-1.12,1.35,.49c4.72,1.72,9.18,3.35,13.28,.39-3.6,.9-5.86-.8-8.06-2.44-1.38-1.03-2.8-2.09-4.59-2.57-1.6-.5-3.33-.11-4.53,1.03l-.38,.36-.34-.4c-.55-.64-1.25-1.14-2.03-1.46-1.41-.56-3.62-.12-5.76,.31-2.69,.54-5.48,1.09-7.22-.18-.88-.65-1.41-1.71-1.58-3.17-.41,2.48,.84,4.88,3.09,5.9h0c1.81,.82,3.74,1.25,5.72,1.28,.26,0,.78-.03,1.38-.07,.8-.06,1.81-.13,2.72-.13Z" fill="#002346"></path>
    </g>
  </g>
  <g>
    <g>
      <circle cx="333.57" cy="320.09" r="19" fill="#f69074"></circle>
      <path d="M333.54,339.6c-3.2,0-6.37-.8-9.27-2.37-9.45-5.12-12.98-16.98-7.85-26.43,2.48-4.58,6.6-7.92,11.59-9.4,4.99-1.49,10.27-.93,14.84,1.55,9.45,5.12,12.98,16.98,7.85,26.43h0c-2.48,4.58-6.6,7.92-11.59,9.4-1.84,.55-3.71,.82-5.58,.82Zm.05-38.02c-1.77,0-3.55,.26-5.29,.77-4.74,1.41-8.64,4.58-11,8.92-4.86,8.97-1.52,20.22,7.45,25.08,4.34,2.35,9.35,2.88,14.08,1.47,4.74-1.41,8.64-4.58,11-8.92,4.86-8.97,1.52-20.22-7.45-25.08-2.74-1.49-5.75-2.24-8.79-2.24Z" fill="#002346"></path>
    </g>
    <g>
      <path d="M322.9,302.95c1.86,.85,3.88,1.3,5.93,1.32,.76,.03,3.42-.32,5.12-.16-.53,.58-.82,1.34-.84,2.12-.06,2.33,2.03,3.99,3.87,4.85,2.45,1.13,8.12,.72,8.56,4.23,.07,.58,1.06,.57,1.04-.06-.06-1.63-.53-3.21-1.39-4.6-.98-1.54-2.73-2.47-3.62-4.12-.27-.5-.45-.96-.67-1.41,4.89,1.79,9.89,3.68,14.38,.04,.29-.23,.07-.8-.32-.7-5.98,1.88-8-3.53-12.96-4.85-1.75-.55-3.66-.11-5,1.15-.6-.7-1.37-1.25-2.23-1.59-4.17-1.66-13.46,4.43-14.25-2.63-.09-.57-.88-.48-.94,.03-.5,2.64,.87,5.28,3.32,6.38Z" fill="#002346"></path>
      <path d="M346.05,316.24c-.53,0-.96-.36-1.02-.87-.26-2.08-2.8-2.57-5.26-3.04-1.14-.22-2.21-.43-3.02-.8-2.66-1.24-4.21-3.23-4.16-5.31,.01-.58,.16-1.14,.42-1.65-.89,0-1.92,.07-2.72,.13-.66,.05-1.19,.09-1.49,.07-2.11-.02-4.17-.48-6.11-1.37-2.67-1.21-4.15-4.06-3.6-6.93,.05-.45,.46-.81,.96-.83,.53-.01,.88,.33,.96,.81,.14,1.2,.52,2.01,1.17,2.49,1.39,1.02,3.96,.5,6.44,0,2.28-.46,4.65-.93,6.33-.26,.78,.31,1.49,.78,2.08,1.37,1.44-1.13,3.35-1.48,5.11-.93,1.96,.52,3.46,1.64,4.91,2.73,2.3,1.72,4.29,3.21,7.75,2.12,.42-.11,.8,.06,.99,.43,.2,.39,.12,.86-.21,1.12-4.35,3.53-9.1,2.13-13.73,.46,.05,.1,.1,.19,.15,.29,.44,.81,1.11,1.44,1.81,2.1,.64,.6,1.3,1.22,1.79,1.99,.9,1.46,1.41,3.14,1.47,4.85,0,.55-.38,.96-.94,1-.03,0-.05,0-.08,0Zm-13.11-12.67c.37,0,.72,.01,1.04,.04l.99,.09-.67,.74c-.45,.5-.7,1.14-.72,1.8-.06,2.49,2.72,3.98,3.58,4.38,.69,.32,1.71,.51,2.78,.72,2.54,.49,5.71,1.1,6.06,3.9,0-1.52-.46-3.02-1.26-4.33-.42-.66-1.01-1.21-1.62-1.79-.74-.69-1.5-1.4-2.01-2.36-.17-.31-.3-.61-.43-.89-.08-.18-.16-.36-.25-.53l-.55-1.12,1.35,.49c4.72,1.72,9.18,3.35,13.28,.39-3.59,.9-5.87-.79-8.06-2.44-1.38-1.03-2.8-2.09-4.59-2.57-1.6-.5-3.33-.1-4.53,1.03l-.38,.36-.34-.4c-.55-.64-1.25-1.14-2.04-1.46-1.41-.56-3.62-.12-5.76,.31-2.7,.54-5.48,1.09-7.22-.18-.88-.64-1.41-1.71-1.58-3.16-.4,2.48,.84,4.88,3.09,5.9h0c1.81,.82,3.74,1.25,5.72,1.28,.27,0,.79-.03,1.39-.07,.8-.06,1.8-.13,2.72-.13Z" fill="#002346"></path>
    </g>
  </g>
  <g>
    <path d="M385.59,362l59.66,2.3,38.84-22.66-16.09-22-20,7.62s-55,7.86-68.44,9.71c.02,.06-8.76,12.08,6.03,25.03Z" fill="#f2b3c1"></path>
    <path d="M445.38,364.81h-.15s-59.84-2.31-59.84-2.31l-.13-.12c-13.49-11.81-7.75-23.05-6.25-25.47l-.11-.35,.59-.08c13.1-1.8,66.36-9.41,68.38-9.7l20.3-7.74,.22,.31,16.42,22.45-39.45,23.01Zm-59.59-3.3l59.34,2.29,38.24-22.31-15.54-21.24-19.75,7.51c-.55,.08-54.53,7.79-68.21,9.68-1.41,2.28-6.79,12.84,5.93,24.07Z" fill="#002346"></path>
  </g>
  <g>
    <path d="M379.06,335.01c-3-1.67-7.18-2.46-11,2.1-2.15,2.49-5.1,4.15-8.34,4.69l-25,4.48s-6-1.85-9.71,8.32c0,0-15,9.46,.46,18,0,0,1.39,14.33,17.57,13.41,0,0,16.65-1.39,17.11-13.41,0,0,15.26,2.31,18-8.33h7.36c1.25,0,2.27-1.01,2.28-2.26,0-.51-.17-1-.48-1.4-3.29-4.17-7.54-11.4-5.39-19,.67-2.6-.51-5.31-2.86-6.6Z" fill="#f69074"></path>
    <path d="M341.59,386.55c-13.92,0-16.29-11.71-16.58-13.63-4.57-2.58-6.93-5.52-7.03-8.74-.15-5.18,5.6-9.23,6.62-9.9,3.58-9.64,9.21-8.73,10.14-8.5l24.89-4.46c3.12-.52,5.98-2.13,8.05-4.52,4.09-4.89,8.58-3.9,11.62-2.21,2.55,1.4,3.83,4.35,3.1,7.16-2.15,7.59,2.4,14.89,5.3,18.57,.38,.49,.58,1.09,.58,1.71,0,1.53-1.25,2.76-2.77,2.76h-6.99c-2.74,9.39-15.16,8.67-17.91,8.39-.94,11.83-17.37,13.33-17.54,13.35-.51,.03-1.01,.04-1.49,.04Zm-8.03-39.91c-1.77,0-5.46,.95-8.08,8.13l-.06,.16-.14,.09c-.06,.04-6.44,4.13-6.3,9.12,.09,2.9,2.35,5.59,6.73,8.01l.23,.13,.03,.26c.05,.57,1.53,13.85,17.04,12.96,.15-.01,16.2-1.5,16.64-12.93l.02-.56,.55,.08c.15,.02,14.85,2.11,17.44-7.96l.1-.38h7.75c.98,0,1.77-.79,1.77-1.77,0-.39-.13-.78-.37-1.09-3.02-3.82-7.74-11.43-5.48-19.44,.61-2.36-.47-4.85-2.62-6.03h0c-3.94-2.2-7.43-1.53-10.37,1.98-2.23,2.58-5.29,4.3-8.64,4.86l-25.11,4.5-.12-.04c-.06-.02-.43-.12-1.01-.12Z" fill="#002346"></path>
  </g>
  <g>
    <path d="M551.65,474.35v32.1s-106.26,3.92-97.35-7.49c0,0,19.13-24.84,36.88-8.41,.75,.71,1.94,.68,2.66-.07,.08-.09,.16-.18,.22-.29l4.1-6.56h27.19l26.3-9.28Z" fill="#f69074"></path>
    <path d="M514.05,507.61c-26.56,0-57.85-1.14-60.55-6.42-.28-.55-.44-1.45,.41-2.54,.41-.53,10.24-13.12,22.53-14.15,5.44-.46,10.51,1.46,15.08,5.68,.27,.26,.6,.4,.99,.38,.37,0,.71-.16,.96-.43,.06-.07,.12-.14,.17-.21l4.24-6.79h27.38l26.89-9.49v33.29l-.48,.02c-1.6,.06-18.37,.66-37.62,.66Zm-36.05-22.18c-.49,0-.98,.02-1.47,.06-11.85,.99-21.73,13.64-21.83,13.77-.57,.73-.45,1.19-.31,1.47,3.6,7.05,70.59,6.18,96.76,5.24v-30.91l-25.8,9.07h-26.91l-3.95,6.33c-.09,.13-.18,.25-.28,.36-.44,.46-1.03,.73-1.66,.74-.65-.01-1.24-.21-1.7-.65-3.93-3.64-8.25-5.48-12.84-5.48Z" fill="#002346"></path>
  </g>
  <g id="b">
    <path d="M582.6,468.3l-4.25,16.69c-.4,1.69-1.88,2.92-3.62,3-4.29,.15-12.3,2-15.91,12.76l-3.33,7.27c-.24,.5-.03,1.1,.47,1.33,.13,.06,.27,.09,.41,.1l49.29,1.74,18.64-45.21c.53-1.26,.31-2.71-.55-3.77-4.48-5.32-9.73-9.94-15.57-13.71,0,0-2.4,.36-8.65-1.36l-3.48-.72-.76,6.48s-5.03,12.46-12.69,15.4Z" fill="#f69074"></path>
    <path d="M605.99,511.7h-.35s-49.29-1.75-49.29-1.75c-.2,0-.42-.05-.6-.15-.75-.36-1.06-1.25-.71-2l3.33-7.26c3.68-10.98,11.82-12.89,16.35-13.05,1.5-.07,2.8-1.15,3.15-2.62l4.32-16.95,.24-.09c7.1-2.72,11.99-14.12,12.38-15.06l.82-6.95,4.01,.83c6.05,1.67,8.45,1.36,8.48,1.35l.18-.03,.16,.1c5.89,3.8,11.17,8.45,15.68,13.81,.99,1.21,1.23,2.85,.63,4.28l-18.77,45.53Zm-22.97-43.03l-4.19,16.44c-.45,1.89-2.13,3.28-4.08,3.38-4.27,.15-11.95,1.96-15.46,12.42l-3.35,7.32c-.12,.26-.01,.55,.23,.67,.06,.03,.13,.05,.2,.05l48.95,1.73,18.51-44.89c.46-1.1,.27-2.35-.48-3.26-4.41-5.23-9.56-9.78-15.31-13.51-.7,.05-3.29,.08-8.66-1.39l-2.91-.6-.73,6.07c-.21,.51-5.1,12.44-12.73,15.58Z" fill="#002346"></path>
  </g>
  <g>
    <path d="M524.31,263.22s-15.59,6.16-30.5,28.44c-1.85,2.78-3.49,5.7-4.89,8.73-2.2,4.72-7.88,14.09-18.55,15.05-1.62,.14-2.82,1.56-2.68,3.18,.03,.38,.14,.74,.31,1.08,5.86,11.46,24.27,41.21,54.65,34.7,0,0,18.38-64.53,9.26-84.46l-7.6-6.72Z" fill="#f69074"></path>
    <path d="M514.07,355.84c-25.2,0-40.67-24.49-46.51-35.91-.2-.4-.32-.82-.36-1.26-.16-1.89,1.24-3.56,3.13-3.72,10.23-.92,15.75-9.64,18.14-14.76,1.41-3.04,3.07-6,4.93-8.8,14.83-22.15,30.58-28.57,30.73-28.63l.29-.11,7.95,7.09c9.09,19.87-8.48,82.16-9.23,84.8l-.08,.29-.29,.06c-3.01,.65-5.91,.94-8.69,.94Zm10.15-92.03c-2.16,.96-16.43,7.88-29.99,28.13-1.83,2.75-3.47,5.66-4.85,8.66-1.99,4.28-7.83,14.34-18.96,15.34-1.34,.12-2.34,1.3-2.22,2.64,.03,.31,.11,.62,.26,.9,5.75,11.24,20.97,35.35,45.64,35.36,2.62,0,5.33-.27,8.16-.86,1.32-4.72,17.78-64.76,9.25-83.73l-7.28-6.44Z" fill="#002346"></path>
  </g>
  <g>
    <path d="M541.56,224.2s-.53,16.92,12.4,25c0,0-18.86,5.16-22.63,20.24l-16.43-14.54s19.66,.54,26.66-30.7Z" fill="#f2b3c1"></path>
    <path d="M531.62,270.36l-18.07-15.99,1.37,.03c.22,0,19.34,.12,26.16-30.31l.99,.12c0,.17-.36,16.73,12.16,24.56l.97,.6-1.1,.3c-.19,.05-18.62,5.26-22.28,19.88l-.2,.8Zm-15.49-15.04l14.93,13.22c3.66-12.58,17.81-18.16,21.75-19.49-8.75-6.03-10.99-16.23-11.56-21.49-6.46,23.81-20.82,27.27-25.12,27.77Z" fill="#002346"></path>
  </g>
  <g>
    <path d="M564.13,364.88l-1.07,10.7s21.7,8,37.93,18.19c8.8,5.54,18.42,9.66,28.5,12.22,11.9,3,23.82,3.54,21.29-7.41,0,0,3.63-81.26-56.85-131.77-1.78-1.49-3.53-3-5.23-4.63-5.57-5.2-20.94-17.81-35.39-13.7l10.82,116.4Z" fill="#f69074"></path>
    <path d="M641.82,408.35c-3.33,0-7.48-.63-12.44-1.88-10.14-2.58-19.78-6.71-28.64-12.28-16-10.05-37.62-18.06-37.84-18.14l-.36-.13,1.1-11.04-10.85-116.76,.4-.11c14.57-4.14,29.94,8.28,35.87,13.81,1.82,1.74,3.65,3.31,5.21,4.61,31.34,26.18,45.18,60.72,51.27,85.09,6.4,25.62,5.81,45.68,5.76,47.02,.74,3.28,.26,5.79-1.43,7.45-1.61,1.58-4.3,2.37-8.04,2.37Zm-78.22-33.11c2.91,1.1,22.72,8.72,37.66,18.1,8.78,5.52,18.32,9.61,28.36,12.16,10.04,2.53,16.79,2.45,19.53-.24,1.44-1.41,1.83-3.63,1.15-6.58l-.02-.07v-.07c.01-.2,.83-20.57-5.74-46.83-6.05-24.21-19.8-58.54-50.93-84.53-1.57-1.32-3.42-2.9-5.26-4.65-5.75-5.36-20.54-17.35-34.51-13.69l10.78,116.03-1.04,10.37Z" fill="#002346"></path>
  </g>
  <g>
    <path d="M563.06,375.58l-1.06,8.16s1.3,9.71-20.63,16.13c0,0-71.14,36.9-82.91,47.6,0,0-12.29,18.22,1.77,31.54,2.23,2.08,5.14,3.28,8.19,3.38l51.53,1.91c1.82,.07,3.65-.16,5.4-.66,12.58-3.64,24.96-7.92,37.1-12.83,3.08-1.26,6.39-1.86,9.71-1.75l5.06,.17c4.22,.15,8.29-1.59,11.09-4.76,4.07-4.59,7.05-10.04,8.71-15.95,.29-1.07,1.39-1.7,2.45-1.41,.02,0,.04,.01,.06,.02,3.72,1.15,12.09,3,20.47-.17,0,0,27.81-8,28.35-25.14l-.06-15.52s-8.21,5.7-33.88-5.71c0-.05-38.87-22.16-51.35-25.01Z" fill="#fbe493"></path>
    <path d="M520.58,484.81c-.22,0-.43,0-.65-.01l-51.53-1.91c-3.17-.1-6.19-1.35-8.51-3.51-14.21-13.46-1.97-32-1.84-32.18l.08-.09c11.68-10.62,80.11-46.17,83.02-47.67,21.26-6.23,20.38-15.53,20.36-15.62v-.06s0-.07,0-.07l1.13-8.71,.54,.12c6.52,1.49,20.17,8.22,30.47,13.6,5.91,3.09,11.28,6.02,14.74,7.93,4.17,2.31,5.67,3.14,6.22,3.53v-.02c25,11.11,33.32,5.81,33.41,5.75l.78-.53,.07,16.46c-.55,17.32-27.56,25.29-28.71,25.62-8.33,3.15-16.58,1.46-20.76,.17-.43-.12-.83-.07-1.18,.13-.35,.2-.6,.52-.7,.91-1.67,5.95-4.72,11.53-8.82,16.15-2.91,3.29-7.07,5.07-11.48,4.93l-5.06-.17c-3.27-.11-6.47,.47-9.5,1.71-12.12,4.9-24.62,9.22-37.15,12.85-1.6,.46-3.25,.69-4.91,.69Zm-61.74-37.01c-.67,1.04-11.5,18.31,1.73,30.85,2.14,2,4.93,3.15,7.86,3.24l51.53,1.91c1.78,.07,3.54-.15,5.24-.64,12.5-3.62,24.97-7.93,37.05-12.81,3.16-1.3,6.5-1.89,9.91-1.79l5.06,.17c4.07,.18,7.99-1.52,10.7-4.59,4-4.51,6.97-9.96,8.6-15.75,.17-.64,.59-1.18,1.17-1.51,.58-.33,1.25-.42,1.9-.24,3.33,1.03,11.83,3.03,20.22-.14,.31-.09,27.5-8.11,28.03-24.69l-.06-14.68c-2.59,1.13-11.95,3.54-33.59-6.07l-.3-.17c-3.12-1.79-38.15-21.53-50.43-24.68l-.98,7.55c.09,.99,.36,10.35-20.99,16.6-.62,.33-70.94,36.86-82.67,47.45Z" fill="#002346"></path>
  </g>
  <g>
    <path d="M500.71,529.03l193.24,8.45s-1.11-5-17.78-5.41c-.99-.02-1.78-.84-1.76-1.84,0-.05,0-.11,.01-.16,.67-4.94,.23-16.38-22-4.16-2.36,1.23-5.27,.39-6.62-1.91-4.61-8.09-11.03-15-18.76-20.19-15.95-10.56-36.81-9.96-52.13,1.49-6.28,4.66-11.41,10.7-15,17.64-.24,.46-.8,.65-1.26,.41-.1-.05-.19-.12-.27-.2-2.34-2.58-8.86-8.41-14.21-.14,0,0-4.83-13.89-15.1-10.87,0,0-9.42,.5-10.29,8.68-.16,1.94-1.35,3.65-3.11,4.47-4.75,2.04-9.81,3.3-14.96,3.74Z" fill="#7cd295"></path>
    <path d="M694.58,538.01l-193.89-8.48-.02-1c5.11-.44,10.09-1.68,14.81-3.7,1.58-.74,2.67-2.29,2.81-4.05,.87-8.16,9.85-9.07,10.7-9.13,9-2.6,13.99,7.24,15.31,10.31,1.68-2.28,3.61-3.53,5.74-3.7,3.72-.29,7.06,2.72,8.72,4.56,.03,.04,.08,.07,.12,.09,.11,.05,.22,.06,.34,.03,.11-.04,.2-.11,.26-.22,3.61-6.97,8.85-13.13,15.15-17.82,15.44-11.54,36.62-12.15,52.7-1.5,7.75,5.21,14.29,12.25,18.92,20.36,1.21,2.06,3.83,2.82,5.95,1.71,9.73-5.34,16.48-6.81,20.08-4.34,3.08,2.12,2.98,6.55,2.65,9.01v.11c-.02,.71,.55,1.3,1.27,1.32,16.87,.42,18.21,5.58,18.26,5.8l.14,.64Zm-188.45-9.24l186.94,8.17c-1.04-1.29-4.7-4.07-16.91-4.37-1.27-.03-2.28-1.08-2.25-2.35,0-.07,0-.14,.01-.21,.3-2.24,.42-6.25-2.22-8.07-3.21-2.2-9.79-.68-19.04,4.4-2.62,1.36-5.81,.43-7.29-2.1-4.55-7.98-10.98-14.91-18.61-20.03-15.73-10.41-36.45-9.82-51.55,1.47-6.18,4.59-11.32,10.63-14.86,17.47-.36,.71-1.23,.99-1.93,.63-.15-.08-.29-.18-.41-.31-1.54-1.7-4.63-4.5-7.91-4.23-2.04,.17-3.9,1.52-5.52,4.03l-.56,.86-.34-.97c-.05-.13-4.79-13.4-14.49-10.55l-.11,.02c-.37,.02-9.01,.58-9.82,8.23-.17,2.1-1.47,3.97-3.4,4.87-3.15,1.35-6.41,2.36-9.75,3.02Z" fill="#002346"></path>
  </g>
  <g>
    <rect x="488.5" y="174.03" width="55" height="82" rx="27.5" ry="27.5" fill="#f2b3c1"></rect>
    <path d="M516,256.53c-15.44,0-28-12.56-28-28v-27c0-15.44,12.56-28,28-28s28,12.56,28,28v27c0,15.44-12.56,28-28,28Zm0-82c-14.89,0-27,12.11-27,27v27c0,14.89,12.11,27,27,27s27-12.11,27-27v-27c0-14.89-12.11-27-27-27Z" fill="#002346"></path>
  </g>
  <g>
    <path d="M518.3,160.69s33.93-3.23,34.47,23.7c0,0,8.95-2.33,11.64,7.88,.97,3.67,.58,7.58-.88,11.09-1.69,4.05-4.64,9.84-8.59,12.81,0,0,0-10.77-8.35-11.31,0,0-3.49,.27-4.56,2.05,0,0,1,10.79,0,17.88,0,0-12.1,6.37-9.61-27.15-.02,0-18.73-1.94-25.42-16.48,0,0-15.22,10.44-18.99,23.37,0,0-16.39-41.68,30.3-43.84Z" fill="#002346"></path>
    <path d="M539.83,225.78c-.88,0-1.92-.21-2.97-.9-4.36-2.86-6.03-11.87-4.97-26.8-3.03-.43-18.78-3.32-25.08-16.16-2.6,1.9-15.02,11.43-18.32,22.76l-.41,1.41-.54-1.36c-.07-.18-7.08-18.38,1.36-31.41,5.21-8.04,15.09-12.45,29.37-13.12,.88-.08,17.8-1.53,27.87,7.44,4.46,3.98,6.85,9.41,7.11,16.16,2.14-.31,9.27-.65,11.64,8.35,.96,3.65,.64,7.71-.91,11.41-1.79,4.29-4.76,10.02-8.75,13.02l-.8,.6v-1c0-.42-.1-10.31-7.88-10.81-.8,.07-3.16,.5-4.01,1.68,.12,1.43,.91,11.25-.02,17.82l-.04,.25-.23,.12c-.07,.04-1.06,.54-2.43,.54Zm-32.63-45.37l.25,.54c6.52,14.18,24.83,16.17,25.01,16.19l.49,.05-.03,.49c-1.37,18.43,1.68,24.51,4.47,26.35,1.8,1.19,3.56,.66,4.18,.42,.92-6.96-.03-17.38-.04-17.49v-.16s.07-.14,.07-.14c1.19-1.98,4.8-2.28,4.95-2.29,7.21,.46,8.57,8.04,8.83,10.81,3.45-2.99,6.06-8.11,7.69-12.01,1.46-3.5,1.77-7.32,.86-10.77-2.52-9.59-10.68-7.61-11.03-7.52l-.61,.16v-.63c-.15-6.73-2.43-12.12-6.81-16.02-9.79-8.73-26.96-7.22-27.13-7.2h-.02c-13.94,.65-23.56,4.91-28.59,12.66-6.83,10.53-3.17,24.67-1.75,29.11,4.39-12.27,18.12-21.79,18.72-22.21l.49-.34Z" fill="#002346"></path>
  </g>
  <g>
    <path d="M473.91,437.09s-47.11-65.43-47.11-83.98c0,0,6.07-26,33.17-20.68l62.64,22,18.72,45.47-67.42,37.19Z" fill="#fbe493"></path>
    <path d="M473.77,437.74l-.26-.36c-1.93-2.68-47.2-65.77-47.2-84.27v-.11c.08-.27,6.49-26.42,33.77-21.06l62.92,22.09,.08,.21,18.89,45.88-.39,.21-67.81,37.4Zm-46.46-84.57c.09,17.54,43,78.01,46.76,83.27l66.64-36.76-18.46-44.85-62.43-21.93c-25.88-5.07-32.1,18.62-32.5,20.27Z" fill="#002346"></path>
  </g>
  <g>
    <path d="M522.65,354.4s-.54,15-13.37,16.58c0,0-54,10.7-79.17,27.28,0,0,18.72,7,20.33,16.58,0,0,87.29-5.79,107.45-23.06,2.33-2.05,3.8-4.91,4.11-8l2.13-18.86s-14.51,.58-41.48-10.52Z" fill="#f2b3c1"></path>
    <path d="M450.03,415.37l-.08-.45c-1.54-9.19-19.83-16.13-20.01-16.19l-.92-.34,.82-.54c24.96-16.44,78.81-27.24,79.35-27.35,12.29-1.51,12.95-15.51,12.97-16.11l.03-.72,.66,.27c26.53,10.92,41.12,10.5,41.27,10.48l.58-.02-2.19,19.44c-.33,3.22-1.84,6.18-4.28,8.32-20.06,17.18-104.18,22.95-107.75,23.18l-.45,.03Zm-18.82-17.22c3.78,1.54,17.79,7.76,19.65,16.16,6.73-.48,87.65-6.57,106.72-22.91,2.24-1.97,3.64-4.7,3.94-7.67l2.07-18.31c-2.95-.04-17.05-.75-40.48-10.3-.32,3.04-2.28,14.94-13.75,16.35-.5,.1-53,10.63-78.14,26.67Z" fill="#002346"></path>
  </g>
  <g>
    <path d="M517.33,333.3c1.63-15.52,10.89-91.31,36-84.77,0,0,37-7.69,30.61,62.91,0,0-4.5,41.41-7.72,52.39-.4,1.33-1.62,2.24-3,2.24-9.09,.14-44.94-.64-62.65-21-1.12-1.32-.96-3.29,.36-4.41,.05-.04,.11-.09,.16-.13l3.71-2.79c1.43-1.06,2.35-2.67,2.53-4.44Z" fill="#f69074"></path>
    <path d="M571.57,366.58c-12,0-44.58-1.89-61.37-21.18-1.3-1.53-1.11-3.83,.41-5.12,.06-.05,.12-.1,.19-.15l3.71-2.79c1.32-.97,2.17-2.47,2.33-4.09h0c1.73-16.45,8.73-71.07,26.27-83.22,3.23-2.23,6.67-2.91,10.25-2.01,1.17-.2,10.6-1.53,18.83,5.81,10.73,9.57,14.86,28.97,12.26,57.66-.05,.42-4.54,41.59-7.74,52.49-.46,1.55-1.86,2.59-3.48,2.6-.5,0-1.05,.01-1.66,.01Zm-53.74-33.23h0c-.2,1.91-1.19,3.65-2.73,4.79l-3.71,2.79c-.05,.04-.09,.07-.14,.11-.54,.46-.86,1.09-.92,1.79s.16,1.38,.62,1.92c17.35,19.94,52.04,20.98,62.26,20.82,1.18,0,2.19-.76,2.53-1.88,3.17-10.81,7.66-51.89,7.7-52.3,2.53-27.93-1.59-47.58-11.92-56.8-8.36-7.47-18-5.59-18.09-5.57l-.11,.02-.11-.03c-3.32-.86-6.52-.25-9.53,1.84-17.63,12.21-24.62,70.86-25.84,82.5Z" fill="#002346"></path>
  </g>
  <g>
    <path d="M321.04,452.63c4.63-13.94,13.07-26,20.51-38.53,18-30.19,25.35-62.6,14.09-96.63-10-30.1-25.47-57.19-30.89-88.89-4.91-28.69-2.26-56.27,9.75-83,.19-.42,.89-.12,.74,.3-11.44,30.05-10.35,64.21-2.46,95,7.76,30.25,26.42,56.19,34.12,86.31,7.21,28.27,.69,56.54-12.62,82-7.49,14.3-17.78,27.25-23.62,42.4-6,15.67-5.1,31.93-6.25,48.34,0,2.23-1.8,4.03-4.03,4.03s-4.03-1.8-4.03-4.03c-1.09-15.49-.23-32.41,4.69-47.3Z" fill="#fff"></path>
    <path d="M320.38,504.46c-2.5,0-4.53-2.03-4.53-4.53-1.28-18.14,.31-34.12,4.71-47.46h0c3.69-11.12,9.89-21.19,15.88-30.93,1.55-2.52,3.15-5.12,4.68-7.7,19.58-32.84,24.3-65.21,14.04-96.22-3.59-10.81-7.96-21.39-12.18-31.63-7.5-18.18-15.25-36.98-18.73-57.34-5.13-29.97-1.93-57.22,9.79-83.29,.19-.43,.68-.61,1.14-.42,.46,.19,.69,.66,.53,1.1-13.2,34.67-8.61,70.64-2.45,94.71,3.87,15.08,10.57,29.33,17.05,43.12,6.49,13.81,13.21,28.09,17.07,43.19,6.61,25.93,2.35,53.64-12.66,82.36-2.89,5.52-6.25,10.92-9.5,16.14-5.17,8.32-10.53,16.93-14.1,26.2-4.6,12.02-5.11,24.15-5.64,36.99-.15,3.67-.31,7.46-.57,11.21,0,2.46-2.03,4.49-4.53,4.49Zm1.13-51.67c-4.3,13.03-5.92,29.32-4.67,47.11,0,1.98,1.58,3.56,3.53,3.56s3.53-1.58,3.53-3.53c.26-3.77,.42-7.55,.57-11.21,.52-12.36,1.05-25.13,5.71-37.31,3.61-9.37,8.99-18.01,14.18-26.37,3.24-5.21,6.59-10.59,9.46-16.08,14.9-28.49,19.13-55.96,12.58-81.64-3.84-15.01-10.53-29.25-17-43.02-6.5-13.83-13.22-28.12-17.12-43.29-6.02-23.49-10.54-58.26,1.34-92.19-10.55,24.97-13.29,51.07-8.39,79.69,3.46,20.25,11.19,38.99,18.67,57.12,4.23,10.25,8.6,20.85,12.2,31.69,10.35,31.29,5.6,63.95-14.13,97.04-1.53,2.58-3.14,5.19-4.69,7.71-5.96,9.69-12.12,19.71-15.78,30.72h0Z" fill="#002346"></path>
  </g>
  <g>
    <path d="M327.88,338.48c3.81-27.76,18.15-52,24.25-79.11,6.67-29.37,4.92-60.03-5.07-88.44-.17-.49,.61-.7,.78-.21,9.19,25.14,12.94,51.94,11,78.64-2.19,28.16-14.79,53-20.51,80.29-6.33,31.11-.55,59.73,8.42,89.6,8.1,26.64,11.96,54.38,11.44,82.22-.09,5-7.93,5.05-7.83,0,.57-29.42-4.48-57.19-13.58-85.06-8.37-25.62-12.6-51.01-8.9-77.93Z" fill="#fff"></path>
    <path d="M354.19,505.74c-.86,0-1.71-.22-2.43-.65-1.26-.76-1.93-2.05-1.9-3.63,.53-27.55-3.9-55.32-13.56-84.89-9.44-28.9-12.27-53.73-8.92-78.15h0c2.14-15.6,7.68-30.31,13.03-44.54,4.2-11.17,8.55-22.71,11.22-34.61,6.66-29.32,4.92-59.8-5.05-88.17-.09-.25-.07-.5,.06-.71,.1-.18,.27-.32,.48-.39,.49-.17,1.02,.07,1.19,.56,9.27,25.37,12.98,51.89,11.03,78.84-1.32,16.94-6.47,32.95-11.46,48.43-3.33,10.34-6.77,21.02-9.06,31.93-6.54,32.14,.18,61.94,8.41,89.35,8.13,26.73,11.98,54.44,11.46,82.37-.03,1.62-.79,2.92-2.14,3.67-.71,.39-1.54,.59-2.36,.59Zm-3.44-324.75c7.11,25.56,7.78,52.49,1.87,78.5-2.69,11.97-7.05,23.54-11.26,34.74-5.34,14.18-10.85,28.84-12.98,44.33h0c-3.33,24.26-.51,48.96,8.88,77.71,9.69,29.68,14.14,57.56,13.6,85.22-.03,1.55,.75,2.35,1.42,2.75,1.1,.67,2.62,.68,3.79,.04,1.03-.57,1.6-1.56,1.63-2.81,.52-27.83-3.32-55.44-11.42-82.07-8.27-27.54-15.02-57.49-8.43-89.84,2.3-10.96,5.75-21.67,9.09-32.03,4.97-15.42,10.11-31.37,11.42-48.2,1.69-23.25-.86-46.19-7.59-68.34Zm-3.38-10.09h0s0,0,0,0Z" fill="#002346"></path>
  </g>
  <g>
    <g>
      <circle cx="370" cy="289.53" r="19" fill="#f69074"></circle>
      <path d="M370,309.03c-10.75,0-19.5-8.75-19.5-19.5s8.75-19.5,19.5-19.5,19.5,8.75,19.5,19.5-8.75,19.5-19.5,19.5Zm0-38c-10.2,0-18.5,8.3-18.5,18.5s8.3,18.5,18.5,18.5,18.5-8.3,18.5-18.5-8.3-18.5-18.5-18.5Z" fill="#002346"></path>
    </g>
    <g>
      <path d="M352.45,279.54c2.04-.14,4.03-.71,5.84-1.66,.68-.33,2.86-1.91,4.42-2.58-.18,.76-.09,1.57,.27,2.27,1.06,2.08,3.69,2.54,5.71,2.42,2.69-.17,7.48-3.24,9.54-.36,.34,.48,1.2,0,.89-.55-.82-1.4-2-2.57-3.41-3.38-1.6-.89-3.58-.87-5.15-1.9-.47-.31-.85-.63-1.26-.92,5.15-.76,10.45-1.48,12.66-6.82,.14-.34-.32-.74-.61-.46-4.36,4.5-8.71,.71-13.7,1.91-1.8,.35-3.27,1.65-3.85,3.39-.87-.33-1.8-.45-2.72-.34-4.46,.53-9.72,10.31-13.78,4.48-.35-.46-1,0-.81,.47,.82,2.56,3.28,4.22,5.96,4.03Z" fill="#002346"></path>
      <path d="M368.08,280.51c-2.62,0-4.67-.99-5.54-2.71-.26-.52-.4-1.08-.42-1.65-.79,.42-1.66,.98-2.33,1.41-.56,.36-1,.64-1.28,.78-1.87,.98-3.9,1.56-6.02,1.71-2.91,.21-5.58-1.59-6.47-4.38-.17-.42,.01-.93,.45-1.18,.42-.24,.93-.13,1.23,.26,.69,.99,1.41,1.52,2.22,1.63,1.71,.24,3.72-1.44,5.66-3.06,1.79-1.49,3.64-3.03,5.44-3.24,.83-.1,1.68-.03,2.48,.21,.73-1.67,2.24-2.9,4.05-3.25,1.97-.47,3.82-.2,5.62,.06,2.84,.42,5.3,.78,7.82-1.83,.31-.29,.73-.32,1.08-.09,.36,.25,.51,.71,.35,1.09-2.14,5.18-6.99,6.21-11.86,6.95,.09,.06,.18,.12,.27,.18,.77,.51,1.66,.74,2.6,.99,.84,.22,1.72,.45,2.52,.9,1.49,.86,2.73,2.09,3.6,3.56,.27,.47,.12,1.03-.35,1.33-.48,.3-1.07,.2-1.38-.23-1.22-1.7-3.69-.92-6.07-.17-1.11,.35-2.15,.68-3.03,.74-.22,.01-.43,.02-.64,.02Zm-4.65-6.06l-.23,.97c-.16,.65-.07,1.33,.23,1.93,1.13,2.22,4.29,2.2,5.24,2.15,.76-.05,1.75-.36,2.79-.69,2.47-.78,5.54-1.76,7.18,.54-.73-1.33-1.84-2.44-3.18-3.21-.68-.38-1.46-.58-2.28-.8-.98-.26-1.99-.52-2.89-1.12-.29-.19-.55-.39-.8-.58-.16-.12-.31-.24-.47-.35l-1.02-.72,1.42-.21c4.97-.73,9.67-1.42,11.86-5.98-2.73,2.5-5.53,2.09-8.25,1.7-1.7-.25-3.46-.51-5.26-.07-1.64,.32-2.97,1.49-3.49,3.06l-.16,.5-.49-.19c-.79-.3-1.65-.41-2.48-.31-1.5,.18-3.24,1.62-4.92,3.02-2.11,1.76-4.3,3.58-6.44,3.28-1.08-.15-2.06-.83-2.89-2.03,.83,2.38,3.06,3.9,5.52,3.71h0c1.98-.14,3.88-.68,5.64-1.6,.23-.11,.68-.4,1.19-.73,.94-.6,2.23-1.43,3.26-1.87l.92-.39Z" fill="#002346"></path>
    </g>
  </g>
  <g>
    <g>
      <circle cx="350.57" cy="212.09" r="19" fill="#f69074"></circle>
      <path d="M350.54,231.6c-3.2,0-6.37-.8-9.26-2.37-9.45-5.12-12.98-16.98-7.85-26.44,5.12-9.45,16.98-12.98,26.43-7.85,4.58,2.48,7.92,6.6,9.4,11.59,1.48,4.99,.93,10.26-1.55,14.84-2.48,4.58-6.6,7.92-11.59,9.4-1.84,.55-3.71,.82-5.58,.82Zm.06-38.01c-6.57,0-12.95,3.51-16.3,9.68-4.86,8.97-1.52,20.22,7.45,25.08,4.34,2.35,9.34,2.88,14.08,1.47,4.74-1.41,8.64-4.58,11-8.92h0c2.35-4.34,2.88-9.35,1.47-14.08s-4.58-8.64-8.92-11c-2.79-1.51-5.81-2.23-8.78-2.23Z" fill="#002346"></path>
    </g>
    <g>
      <path d="M339.9,194.95c1.86,.85,3.88,1.3,5.93,1.32,.76,.03,3.42-.32,5.12-.16-.53,.58-.82,1.34-.84,2.12-.06,2.33,2.03,3.99,3.87,4.85,2.45,1.13,8.12,.72,8.56,4.23,.07,.58,1.06,.57,1.04-.06-.06-1.63-.53-3.21-1.39-4.6-.98-1.54-2.73-2.47-3.62-4.12-.27-.5-.45-.96-.67-1.41,4.89,1.79,9.89,3.68,14.38,.04,.29-.23,.07-.8-.32-.7-5.98,1.88-8-3.53-12.96-4.85-1.75-.55-3.66-.11-5,1.15-.6-.7-1.37-1.25-2.23-1.59-4.17-1.66-13.46,4.43-14.25-2.63-.09-.57-.88-.48-.94,.03-.5,2.64,.87,5.28,3.32,6.38Z" fill="#002346"></path>
      <path d="M363.05,208.24c-.53,0-.96-.36-1.02-.87-.26-2.08-2.8-2.57-5.26-3.04-1.14-.22-2.21-.42-3.02-.8-2.66-1.24-4.21-3.23-4.16-5.32,.01-.58,.16-1.14,.42-1.65-.88,0-1.92,.07-2.72,.13-.67,.05-1.19,.09-1.49,.07-2.11-.03-4.17-.49-6.11-1.37-2.67-1.21-4.15-4.06-3.6-6.93,.05-.45,.46-.81,.96-.83,.51,.03,.88,.33,.96,.81,.14,1.2,.52,2.01,1.17,2.49,1.39,1.02,3.96,.5,6.44,0,2.28-.46,4.65-.93,6.33-.26,.78,.31,1.49,.78,2.08,1.37,1.44-1.13,3.35-1.48,5.11-.93,1.96,.52,3.46,1.64,4.91,2.73,2.3,1.72,4.29,3.2,7.75,2.12,.41-.12,.8,.06,.99,.43,.2,.39,.12,.87-.21,1.13-4.35,3.53-9.1,2.13-13.73,.46,.05,.1,.1,.19,.15,.29,.44,.81,1.11,1.44,1.81,2.1,.64,.6,1.3,1.22,1.79,1.99,.9,1.46,1.41,3.14,1.47,4.85,0,.55-.38,.96-.94,1-.03,0-.05,0-.08,0Zm-13.11-12.67c.37,0,.72,.01,1.05,.04l.99,.09-.67,.74c-.45,.5-.7,1.14-.72,1.8-.06,2.48,2.72,3.98,3.58,4.38,.69,.32,1.71,.51,2.78,.72,2.54,.49,5.71,1.1,6.06,3.9,0-1.52-.46-3.02-1.27-4.33-.42-.66-1-1.21-1.62-1.79-.74-.69-1.5-1.4-2.01-2.36-.16-.31-.3-.6-.43-.89-.08-.18-.16-.36-.25-.54l-.55-1.12,1.35,.5c4.72,1.72,9.18,3.35,13.28,.39-3.6,.9-5.87-.79-8.06-2.44-1.38-1.03-2.8-2.09-4.59-2.57-1.6-.5-3.32-.11-4.53,1.03l-.38,.36-.34-.4c-.55-.64-1.25-1.14-2.03-1.46-1.41-.56-3.62-.12-5.76,.31-2.69,.54-5.48,1.09-7.22-.18-.88-.65-1.41-1.71-1.58-3.17-.41,2.49,.84,4.88,3.09,5.9h0c1.81,.82,3.74,1.25,5.72,1.28,.26,0,.79-.03,1.39-.07,.8-.06,1.8-.13,2.72-.13Z" fill="#002346"></path>
    </g>
  </g>
  <g>
    <path d="M233.56,504c33,.94,66.13,1,99.12,1s66.29,1.07,99.23-1.29c.25-.06,.4-.3,.35-.55-.04-.18-.17-.31-.35-.35-3-.23-6.05-.36-9-.53-7.93-6.75-19.21-12.38-28-5.51-2.94-9.65-13.21-11.78-22.88-11.21,5.72-12.64-4.15-26.37-17.75-28.48-13.95-2.18-29.75,5.85-32.57,20-5.72-1.77-10.72,1.09-15.26,5.28-6.71-7.14-16.08,1.07-20.2,9.06-3.09-2-6.81-2.81-10.45-2.27-1.72,.3-3.34,1.03-4.69,2.14-1.14,1-2.31,4-3.41,4.33s-5-1.7-6.41-1.91c-2.65-.31-5.34,.11-7.77,1.22-3.07,1.42-5.39,4.08-6.37,7.32l-13.71,.3c-.4,.04-.69,.39-.66,.79,.03,.39,.36,.69,.75,.66,0,0,.02,0,.03,0h0Z" fill="#7cd295"></path>
    <path d="M379.64,505.74c-7.86,0-15.68-.06-23.41-.12-7.72-.06-15.71-.12-23.55-.12-33.74,0-66.72-.08-99.13-1-.64,0-1.23-.48-1.27-1.13-.06-.66,.44-1.26,1.11-1.32l13.39-.29c1.08-3.21,3.44-5.86,6.53-7.28,2.51-1.15,5.29-1.58,8.04-1.26,.64,.09,1.63,.48,2.68,.89,1.21,.47,3.03,1.17,3.53,1.04,.44-.13,1.11-1.21,1.64-2.07,.51-.82,1.04-1.67,1.58-2.16,1.43-1.17,3.13-1.95,4.94-2.26,3.6-.53,7.24,.2,10.34,2.05,2.85-5.26,7.99-10.75,13.35-11.5,2.65-.37,5.02,.46,7.06,2.45,3.48-3.15,8.66-6.85,14.86-5.21,3.24-14.49,19.58-21.96,33.03-19.87,7.42,1.15,13.93,5.67,17.4,12.08,2.84,5.25,3.21,11.03,1.05,16.35,8.57-.38,19,1.33,22.36,10.93,10.24-7.33,22.81,1.5,27.94,5.84,.84,.05,1.7,.09,2.55,.14,2.06,.11,4.2,.22,6.29,.38,.43,.08,.72,.37,.8,.75,.1,.52-.21,1.02-.72,1.14-17.37,1.25-34.98,1.54-52.39,1.54Zm-146.07-2.24c32.4,.92,65.37,1,99.11,1,7.84,0,15.83,.06,23.56,.12,24.63,.19,50.08,.39,74.96-1.36-1.86-.13-3.76-.23-5.59-.33-.92-.05-1.83-.1-2.73-.15h-.17s-.13-.12-.13-.12c-4.95-4.21-17.53-13.18-27.37-5.5l-.57,.45-.21-.7c-3.01-9.88-13.83-11.36-22.37-10.86l-.83,.05,.34-.75c2.37-5.24,2.12-11-.7-16.21-3.27-6.05-9.66-10.48-16.67-11.57-13.15-2.06-29.16,5.33-32,19.6l-.11,.54-.53-.16c-4.69-1.45-9.38,.19-14.77,5.17l-.36,.34-.34-.36c-1.88-2-4.08-2.84-6.54-2.5-5.15,.72-10.27,6.44-12.85,11.45l-.25,.49-.46-.3c-2.99-1.94-6.58-2.72-10.1-2.2-1.62,.28-3.16,.98-4.45,2.03-.42,.37-.91,1.16-1.38,1.92-.72,1.16-1.4,2.26-2.2,2.5-.76,.23-2.15-.27-4.18-1.06-.95-.37-1.94-.76-2.45-.83-2.55-.29-5.14,.11-7.49,1.18-2.94,1.36-5.16,3.91-6.1,7.01l-.1,.35-14.07,.31c-.09,0-.18,.12-.17,.25,0,.11,.13,.2,.22,.21h.07Zm-.01,.5l.06,.5-.06-.5Z" fill="#002346"></path>
  </g>
  <g>
    <path d="M348.2,526.3c-33,.91-66.13,1-99.13,1s-66.28,1.06-99.22-1.3c-.25,0-.46-.21-.46-.46,0-.25,.21-.46,.46-.46,3-.21,6-.36,9-.51,7.93-6.75,19.21-12.37,28-5.53,2.95-9.58,13.23-11.74,22.95-11.13-5.72-12.64,4.13-26.38,17.74-28.5,13.94-2.17,29.76,5.87,32.56,20,5.82-1.76,10.74,1.08,15.25,5.3,6.7-7.17,16.09,1.07,20.19,9,3.09-2.01,6.8-2.83,10.45-2.3,1.72,.27,3.34,1.01,4.67,2.13,1.16,.94,2.33,4,3.43,4.33s5-1.72,6.41-1.91c2.65-.31,5.34,.11,7.77,1.2,3.07,1.42,5.38,4.09,6.37,7.32l13.71,.31c.4,.07,.68,.45,.61,.85-.06,.35-.36,.61-.71,.62l-.05,.04Z" fill="#7cd295"></path>
    <path d="M202.27,528.04c-17.45,0-35.08-.29-52.45-1.54h0c-.22,0-.46-.1-.64-.28s-.28-.42-.28-.68c0-.52,.43-.95,.95-.95,2.96-.21,5.93-.36,8.81-.5,5.13-4.33,17.69-13.15,27.94-5.85,2.7-7.58,10.63-11.41,22.43-10.86-2.16-5.33-1.79-11.11,1.05-16.37,3.47-6.41,9.97-10.93,17.39-12.09,13.47-2.09,29.79,5.39,33.02,19.87,6.21-1.61,11.17,1.84,14.85,5.23,2.03-2,4.4-2.83,7.05-2.47,5.37,.74,10.5,6.21,13.35,11.46,3.1-1.87,6.74-2.6,10.33-2.09,1.82,.29,3.52,1.06,4.92,2.24,.58,.47,1.12,1.35,1.65,2.21,.52,.84,1.17,1.9,1.6,2.02,.48,.13,2.28-.56,3.47-1.02,1.07-.42,2.09-.82,2.72-.9,2.75-.32,5.53,.11,8.04,1.24,3.09,1.43,5.45,4.07,6.53,7.28l13.35,.3c.74,.12,1.2,.76,1.09,1.43-.09,.52-.5,.93-1,1.02h-.02s-.22,.06-.22,.06c-33.46,.92-67.33,1-99.14,1-7.8,0-15.75,.06-23.44,.12-7.72,.06-15.52,.12-23.36,.12Zm-24.45-11.6c-7.59,0-15.09,5.48-18.64,8.51l-.13,.11h-.17c-2.92,.15-5.95,.3-8.99,.52,25.13,1.72,50.86,1.53,75.74,1.34,7.69-.06,15.65-.12,23.45-.12,31.76,0,65.55-.08,98.95-1l.05-.04h.17c.12,0,.21-.09,.23-.2,.02-.13-.07-.25-.2-.28l-14-.31-.11-.35c-.94-3.09-3.17-5.65-6.1-7.01-2.34-1.05-4.94-1.46-7.5-1.16-.51,.07-1.51,.46-2.48,.84-2.06,.81-3.36,1.28-4.13,1.05-.79-.24-1.43-1.27-2.16-2.46-.49-.79-.99-1.6-1.44-1.96-1.27-1.07-2.8-1.77-4.43-2.02-3.52-.51-7.11,.28-10.1,2.22l-.46,.3-.25-.49c-2.58-4.99-7.71-10.69-12.85-11.4-2.46-.34-4.65,.51-6.53,2.52l-.34,.37-.37-.34c-5.39-5.04-9.94-6.64-14.76-5.19l-.53,.16-.11-.54c-2.83-14.27-18.83-21.65-31.99-19.6-7.12,1.11-13.35,5.43-16.66,11.57-2.82,5.22-3.07,10.98-.7,16.23l.34,.76-.83-.05c-8.56-.54-19.4,.9-22.44,10.78l-.21,.69-.57-.45c-2.77-2.16-5.76-3-8.73-3Z" fill="#002346"></path>
  </g>
  <g>
    <path d="M381.97,341.65c1.25-5.72-4.64-7.49-4.64-7.49-5.47-2.09-9.27,2.95-9.27,2.95-1.69,1.95-3.89,3.4-6.35,4.18-1.52,.5-2.95,1.24-4.23,2.2-5.62,4.31-20,15.72-21.83,21.29-2.21,6.64,2.78,10.73,14.57,3.77,.9-.56,2.01-.67,3-.31,2.73,1,9.49,2,19.9-6.7l11-5.34s-4.09-6.96-2.15-14.55Z" fill="#f69074"></path>
    <path d="M339.99,372.66c-1.5,0-2.74-.37-3.67-1.12-1.72-1.39-2.13-3.91-1.13-6.92,1.78-5.42,14.55-15.81,22-21.53,1.33-1,2.8-1.76,4.38-2.28,2.38-.75,4.5-2.15,6.13-4.03,.02-.03,4.07-5.29,9.83-3.09,.03,0,6.28,1.96,4.95,8.06v.02c-1.87,7.29,2.05,14.1,2.09,14.17l.27,.47-11.43,5.55c-10.29,8.58-17.16,7.91-20.34,6.75-.85-.31-1.79-.21-2.57,.27-4.13,2.44-7.74,3.68-10.5,3.68Zm34.71-38.5c-3.74,0-6.21,3.21-6.24,3.25-1.77,2.05-4.05,3.55-6.6,4.36-1.47,.48-2.84,1.19-4.08,2.12-5.92,4.54-19.9,15.69-21.66,21.05-.86,2.59-.56,4.71,.81,5.82,2.3,1.86,7.04,.89,13.03-2.64,1.03-.63,2.28-.76,3.42-.35,2.98,1.1,9.47,1.69,19.41-6.61l.1-.07,10.53-5.11c-.89-1.72-3.64-7.8-1.95-14.44,1.13-5.18-4.08-6.83-4.3-6.9-.88-.33-1.71-.47-2.49-.47Z" fill="#002346"></path>
  </g>
  <g>
    <path d="M343.97,382.1l30.9,53.73c.27,.47,.94,.5,1.25,.06l27.29-38.99c.3-.43,.08-1.02-.43-1.14-6.52-1.6-41.89-10.31-58.19-14.73-.64-.17-1.15,.51-.83,1.08Z" fill="#fff"></path>
    <path d="M375.51,436.69s-.04,0-.06,0c-.43-.02-.81-.25-1.02-.62l-30.9-53.73c-.25-.44-.22-.98,.09-1.38,.31-.4,.81-.57,1.3-.44,16.2,4.4,51.3,13.04,58.17,14.73,.4,.1,.72,.38,.86,.76,.14,.38,.09,.81-.15,1.15l-27.3,38.99c-.23,.33-.61,.53-1.01,.53Zm-31.11-54.85l30.9,53.73c.06,.1,.15,.12,.2,.12,.05,0,.14,0,.21-.1l27.3-38.99c.06-.09,.04-.18,.03-.22-.02-.04-.06-.12-.16-.15-6.88-1.69-41.99-10.33-58.2-14.74-.13-.04-.21,.04-.24,.08-.03,.04-.09,.14-.02,.27h0Z" fill="#002346"></path>
  </g>
  <g>
    <path d="M430.11,398.3s-10-9.19-8.74,1.71c.13,1.01-.58,1.93-1.58,2.06-.09,.01-.19,.02-.29,.02-4.55-.15-14.84,.78-19.59,11.26,0,0-10.42,9.78-2.93,17.27,0,0-9.77,31.29,11.73,19.56,0,0,7.5,2.28,13,1.3,0,0,6.11,5.2,12.67,0,2.34-1.94,4-4.58,4.74-7.53l6.8-25.84c.34-1.31,1.36-2.34,2.66-2.69l1.82-.5s.14-8.9-20.29-16.62Z" fill="#f69074"></path>
    <path d="M428.21,454.28c-3.35,0-5.93-1.74-6.63-2.27-5.09,.83-11.56-.93-12.81-1.29-5.4,2.91-9.37,3.37-11.8,1.37-5.33-4.38-1.24-19.01-.55-21.33-1.79-1.88-2.68-4.07-2.64-6.49,.09-5.58,5.03-10.55,5.72-11.22,4.94-10.78,15.66-11.6,20.02-11.47,.07,0,.14,0,.21-.01,.73-.1,1.24-.77,1.15-1.5-.36-3.1,.12-4.94,1.47-5.63,2.6-1.32,7.22,2.69,8.03,3.42,20.43,7.75,20.53,16.68,20.52,17.06v.38s-2.19,.6-2.19,.6c-1.13,.31-2.01,1.2-2.31,2.33l-6.8,25.84c-.76,3.07-2.46,5.77-4.9,7.79-2.28,1.81-4.52,2.41-6.49,2.41Zm-6.35-3.33l.18,.15c.24,.2,5.88,4.86,12.04-.01,2.27-1.88,3.85-4.39,4.56-7.26l6.8-25.85c.38-1.48,1.54-2.65,3.01-3.05l1.41-.39c-.28-1.71-2.47-9.19-19.93-15.78l-.16-.1c-1.34-1.23-5.21-4.23-6.97-3.33-.91,.46-1.23,2.06-.93,4.61,.17,1.27-.74,2.45-2.01,2.62-.13,.01-.25,.02-.37,.02-4.18-.13-14.45,.66-19.12,10.97l-.11,.16c-.05,.05-5.4,5.13-5.48,10.58-.03,2.23,.83,4.24,2.56,5.97l.21,.21-.09,.29c-.05,.16-5.02,16.31,.14,20.54,2.12,1.74,5.78,1.21,10.87-1.57l.18-.1,.2,.06c.07,.02,7.45,2.23,12.77,1.29l.23-.04Z" fill="#002346"></path>
  </g>
  <g>
    <path d="M411.07,439.77c.83-7.56,3-23.39,7.37-30.49,1.23-2.06,3.69-3.03,6-2.38,4.63,1.27,13.43,4.15,17.58,8.54,.6,.65,.82,1.56,.57,2.41l-7.65,26.45c-.64,2.23-2.87,3.6-5.15,3.19l-15-2.76c-2.36-.41-3.99-2.58-3.72-4.96Z" fill="#f2b3c1"></path>
    <path d="M430.61,448.07c-.3,0-.6-.03-.91-.08l-15-2.76c-2.61-.45-4.42-2.87-4.13-5.51,.93-8.46,3.13-23.69,7.44-30.7,1.34-2.24,4.04-3.31,6.56-2.6,4.84,1.33,13.59,4.22,17.81,8.68,.72,.77,.98,1.88,.69,2.89l-7.65,26.45c-.63,2.18-2.61,3.63-4.81,3.63Zm-7.61-40.86c-1.66,0-3.25,.86-4.13,2.34-4.21,6.84-6.38,21.91-7.3,30.29h0c-.24,2.11,1.21,4.05,3.31,4.41l15.01,2.76c2.04,.38,4-.85,4.58-2.84l7.65-26.45c.2-.68,.03-1.42-.45-1.93-4.04-4.28-12.6-7.1-17.35-8.4-.43-.12-.87-.18-1.31-.18Z" fill="#002346"></path>
  </g>
  <g>
    <path d="M365.53,396.04l35.36,29.66,2.28-9.78-36.95-20.87c-.64-.36-1.25,.52-.69,.99Z" fill="#d1d3d4"></path>
    <path d="M401.19,426.61l-35.98-30.18c-.45-.38-.53-1-.2-1.48,.33-.48,.94-.62,1.45-.33l37.28,21.06-2.55,10.94Zm-35.34-30.95l34.74,29.14,2.01-8.62-36.62-20.69s-.08-.05-.14,.03c-.06,.08,0,.12,.02,.14h0Z" fill="#002346"></path>
  </g>
  <g>
    <ellipse cx="546.58" cy="216.17" rx="8.35" ry="11.31" fill="#f2b3c1"></ellipse>
    <path d="M546.58,227.98c-4.88,0-8.85-5.3-8.85-11.81s3.97-11.81,8.85-11.81,8.85,5.3,8.85,11.81-3.97,11.81-8.85,11.81Zm0-22.62c-4.33,0-7.85,4.85-7.85,10.81s3.52,10.81,7.85,10.81,7.85-4.85,7.85-10.81-3.52-10.81-7.85-10.81Z" fill="#002346"></path>
  </g>
  <g>
    <ellipse cx="506.5" cy="184.03" rx="19.5" ry="11.5" fill="#002346"></ellipse>
    <path d="M506.5,196.03c-11.03,0-20-5.38-20-12s8.97-12,20-12,20,5.38,20,12-8.97,12-20,12Zm0-23c-10.48,0-19,4.93-19,11s8.52,11,19,11,19-4.93,19-11-8.52-11-19-11Z" fill="#002346"></path>
  </g>
  <path d="M517.61,461.88c-.2,0-.38-.12-.46-.31-.1-.26,.02-.55,.27-.65l62.27-25.46c.44-.14,40.2-13.04,43.96-29.8,.06-.27,.33-.44,.6-.38,.27,.06,.44,.33,.38,.6-3.88,17.32-42.93,29.99-44.59,30.52l-62.23,25.44c-.06,.03-.13,.04-.19,.04Z" fill="#002346"></path>
  <path d="M396.98,431.12c-.13,0-.25-.05-.35-.14-.2-.19-.2-.51,0-.71l2.92-3,3.97-14.87c.07-.27,.34-.43,.61-.35,.27,.07,.43,.35,.35,.61l-4,15c-.02,.08-.07,.16-.13,.22l-3.02,3.09c-.1,.1-.23,.15-.36,.15Z" fill="#002346"></path>
  <g>
    <g>
      <circle cx="336.56" cy="432.11" r="19" fill="#f69074"></circle>
      <path d="M336.53,451.61c-3.14,0-6.31-.76-9.26-2.35-4.58-2.48-7.92-6.6-9.4-11.59-1.48-4.99-.93-10.26,1.55-14.84,5.12-9.45,16.98-12.97,26.44-7.85,9.45,5.12,12.98,16.98,7.85,26.44h0c-3.53,6.51-10.25,10.21-17.18,10.21Zm.07-37.99c-6.58,0-12.95,3.51-16.3,9.68-2.35,4.34-2.88,9.35-1.47,14.08,1.41,4.74,4.58,8.64,8.92,11,8.97,4.86,20.22,1.52,25.08-7.45h0c4.86-8.97,1.52-20.22-7.45-25.08-2.79-1.51-5.81-2.23-8.78-2.23Z" fill="#002346"></path>
    </g>
    <g>
      <path d="M325.9,414.97c1.86,.85,3.88,1.3,5.93,1.32,.76,.03,3.42-.32,5.12-.16-.53,.58-.82,1.34-.84,2.12-.06,2.33,2.03,3.99,3.87,4.85,2.45,1.13,8.12,.72,8.56,4.23,.07,.58,1.06,.57,1.04-.06-.06-1.63-.53-3.21-1.39-4.6-.98-1.54-2.73-2.47-3.62-4.12-.27-.5-.45-.96-.67-1.41,4.89,1.79,9.89,3.68,14.38,.04,.29-.23,.07-.8-.32-.7-5.98,1.88-8-3.53-12.96-4.85-1.75-.55-3.66-.11-5,1.15-.6-.7-1.37-1.25-2.23-1.59-4.17-1.66-13.46,4.43-14.25-2.63-.09-.57-.88-.48-.94,.03-.5,2.64,.87,5.28,3.32,6.38Z" fill="#002346"></path>
      <path d="M349.05,428.26c-.53,0-.96-.36-1.02-.87-.26-2.08-2.8-2.57-5.25-3.04-1.14-.22-2.22-.43-3.02-.8-2.66-1.24-4.21-3.23-4.16-5.31,.01-.58,.16-1.14,.42-1.65-.92-.02-1.93,.07-2.73,.13-.66,.05-1.19,.08-1.49,.07-2.11-.03-4.17-.49-6.11-1.37-2.67-1.21-4.15-4.06-3.6-6.93,.05-.45,.46-.82,.96-.83,.51,.01,.88,.33,.96,.81,.14,1.2,.52,2.01,1.17,2.49,1.39,1.02,3.96,.5,6.44,0,2.28-.46,4.65-.93,6.33-.26,.78,.31,1.49,.78,2.08,1.37,1.43-1.12,3.35-1.48,5.11-.93,1.96,.52,3.46,1.64,4.91,2.73,2.3,1.72,4.29,3.2,7.75,2.12,.42-.12,.8,.06,.99,.43,.2,.39,.12,.86-.21,1.13-4.36,3.53-9.1,2.13-13.73,.46,.05,.1,.1,.19,.15,.29,.44,.81,1.11,1.44,1.81,2.1,.64,.6,1.3,1.22,1.79,1.99,.9,1.46,1.41,3.14,1.47,4.85,0,.55-.39,.96-.94,1-.03,0-.05,0-.08,0Zm-13.11-12.67c.37,0,.72,.01,1.05,.04l.99,.09-.67,.74c-.45,.5-.7,1.14-.72,1.8-.06,2.49,2.72,3.98,3.58,4.38,.69,.32,1.71,.52,2.79,.72,2.54,.49,5.71,1.1,6.06,3.9,0-1.52-.46-3.02-1.26-4.33-.42-.66-1.01-1.21-1.62-1.79-.74-.69-1.5-1.4-2.01-2.36-.16-.31-.3-.6-.43-.89-.08-.18-.16-.36-.25-.54l-.55-1.12,1.35,.49c4.72,1.72,9.18,3.35,13.28,.39-3.59,.9-5.86-.79-8.06-2.44-1.38-1.03-2.8-2.09-4.59-2.57-1.6-.5-3.33-.11-4.53,1.03l-.38,.36-.34-.4c-.55-.64-1.25-1.14-2.03-1.46-1.41-.56-3.62-.12-5.76,.31-2.69,.54-5.48,1.09-7.22-.18-.88-.65-1.41-1.71-1.58-3.17-.41,2.48,.84,4.88,3.09,5.9h0c1.81,.82,3.74,1.25,5.72,1.28,.26,0,.78-.03,1.38-.07,.8-.06,1.81-.13,2.72-.13Z" fill="#002346"></path>
    </g>
  </g>
</svg>

